<svg width="33" height="32" viewBox="0 0 33 32" fill="none" xmlns="http://www.w3.org/2000/svg">
<circle cx="16.5" cy="16" r="11.5" stroke="white"/>
<path d="M14.825 23.2215V17.4025H12.8806C12.7797 17.4025 12.6829 17.3565 12.6115 17.2748C12.5401 17.193 12.5 17.0821 12.5 16.9665V14.665C12.5 14.5493 12.5401 14.4384 12.6115 14.3567C12.6829 14.2749 12.7797 14.229 12.8806 14.229H14.8173V12.001C14.771 11.4727 14.8262 10.9391 14.9791 10.4378C15.132 9.93654 15.3788 9.47967 15.7023 9.09931C16.0258 8.71895 16.4181 8.42432 16.8516 8.23612C17.285 8.04793 17.7492 7.97072 18.2116 8.00993H19.8319C19.9338 8.0097 20.0317 8.05537 20.1045 8.13709C20.1772 8.2188 20.219 8.33001 20.2209 8.44672V10.3955C20.2187 10.512 20.1767 10.6229 20.104 10.7044C20.0313 10.7859 19.9336 10.8315 19.8319 10.8315H18.8192C17.7255 10.8315 17.5153 11.425 17.5153 12.2978V14.2282H20.1154C20.1695 14.2261 20.2232 14.2376 20.273 14.2617C20.3228 14.2859 20.3674 14.3222 20.4037 14.3681C20.44 14.414 20.4671 14.4685 20.4832 14.5276C20.4992 14.5867 20.5039 14.6492 20.4967 14.7106L20.2614 17.0209C20.2496 17.1267 20.2043 17.2239 20.1342 17.2941C20.0641 17.3643 19.9739 17.4025 19.8808 17.4017H17.5313V23.2207C17.5326 23.3235 17.5159 23.4256 17.4822 23.5209C17.4484 23.6161 17.3983 23.7027 17.3348 23.7753C17.2713 23.848 17.1957 23.9053 17.1125 23.9439C17.0292 23.9825 16.9401 24.0015 16.8504 23.9999H15.4976C15.4085 24.0002 15.3203 23.9802 15.2381 23.9411C15.1558 23.9019 15.0812 23.8444 15.0186 23.7719C14.956 23.6993 14.9066 23.6132 14.8734 23.5186C14.8401 23.424 14.8237 23.3235 14.825 23.2215Z" fill="white"/>
</svg>
