<svg width="33" height="32" viewBox="0 0 33 32" fill="none" xmlns="http://www.w3.org/2000/svg">
<circle cx="16.5" cy="16" r="11.5" stroke="white"/>
<path d="M11.86 9C11.4993 9 11.1534 9.13956 10.8983 9.38799C10.6433 9.63641 10.5 9.97335 10.5 10.3247C10.5 10.676 10.6433 11.0129 10.8983 11.2614C11.1534 11.5098 11.4993 11.6494 11.86 11.6494C12.2207 11.6494 12.5666 11.5098 12.8217 11.2614C13.0767 11.0129 13.22 10.676 13.22 10.3247C13.22 9.97335 13.0767 9.63641 12.8217 9.38799C12.5666 9.13956 12.2207 9 11.86 9ZM10.58 12.7403C10.5588 12.7403 10.5384 12.7485 10.5234 12.7631C10.5084 12.7777 10.5 12.7975 10.5 12.8182V20.9221C10.5 20.9651 10.5358 21 10.58 21H13.14C13.1612 21 13.1816 20.9918 13.1966 20.9772C13.2116 20.9626 13.22 20.9427 13.22 20.9221V12.8182C13.22 12.7975 13.2116 12.7777 13.1966 12.7631C13.1816 12.7485 13.1612 12.7403 13.14 12.7403H10.58ZM14.74 12.7403C14.7188 12.7403 14.6984 12.7485 14.6834 12.7631C14.6684 12.7777 14.66 12.7975 14.66 12.8182V20.9221C14.66 20.9651 14.6958 21 14.74 21H17.3C17.3212 21 17.3416 20.9918 17.3566 20.9772C17.3716 20.9626 17.38 20.9427 17.38 20.9221V16.5584C17.38 16.2484 17.5064 15.9512 17.7315 15.732C17.9565 15.5128 18.2617 15.3896 18.58 15.3896C18.8983 15.3896 19.2035 15.5128 19.4285 15.732C19.6536 15.9512 19.78 16.2484 19.78 16.5584V20.9221C19.78 20.9651 19.8158 21 19.86 21H22.42C22.4412 21 22.4616 20.9918 22.4766 20.9772C22.4916 20.9626 22.5 20.9427 22.5 20.9221V15.5486C22.5 14.0356 21.1496 12.8525 19.604 12.989C19.1258 13.0317 18.6575 13.147 18.2158 13.3306L17.38 13.6797V12.8182C17.38 12.7975 17.3716 12.7777 17.3566 12.7631C17.3416 12.7485 17.3212 12.7403 17.3 12.7403H14.74Z" fill="white"/>
</svg>
