<svg width="33" height="32" viewBox="0 0 33 32" fill="none" xmlns="http://www.w3.org/2000/svg">
<circle cx="16.5" cy="16" r="11.5" stroke="white"/>
<path fill-rule="evenodd" clip-rule="evenodd" d="M20.3688 10.0774C20.5316 10.0089 20.7097 9.98523 20.8848 10.0089C21.0598 10.0327 21.2253 10.1029 21.3639 10.2122C21.5026 10.3216 21.6095 10.4661 21.6734 10.6308C21.7372 10.7955 21.7558 10.9742 21.7271 11.1485L20.2331 20.2111C20.0881 21.0852 19.129 21.5865 18.3273 21.1511C17.6567 20.7868 16.6606 20.2256 15.7647 19.6399C15.3168 19.3468 13.9446 18.408 14.1132 17.7401C14.2581 17.1689 16.5638 15.0227 17.8813 13.7467C18.3984 13.2453 18.1626 12.9562 17.5519 13.4173C16.0355 14.5622 13.6007 16.3033 12.7957 16.7934C12.0855 17.2256 11.7153 17.2993 11.2726 17.2256C10.465 17.0912 9.71599 16.883 9.10467 16.6294C8.27858 16.2868 8.31877 15.1511 9.10401 14.8204L20.3688 10.0774Z" fill="white"/>
</svg>
