<svg width="24" height="24" viewBox="0 0 24 24" fill="none" xmlns="http://www.w3.org/2000/svg">
<path d="M15.2748 6.21053C15.2748 8.25149 13.5882 9.92105 11.4891 9.92105C9.38995 9.92105 7.70343 8.25149 7.70343 6.21053C7.70343 4.16956 9.38995 2.5 11.4891 2.5C13.5882 2.5 15.2748 4.16956 15.2748 6.21053ZM4.50089 14.4397C4.47314 13.6729 5.12689 13.0263 6.00098 13.0263H17.9948C18.8987 13.0263 19.5608 13.7143 19.4953 14.5055C19.4327 15.2625 19.3134 16.1353 19.0922 16.9572C18.8693 17.7856 18.553 18.5236 18.1198 19.0431C17.2622 20.0713 16.3573 20.6923 15.3476 21.054C14.3287 21.419 13.1735 21.5306 11.799 21.4931C10.385 21.4546 9.1897 21.273 8.15995 20.8308C7.14041 20.393 6.25563 19.6878 5.4795 18.5548C5.13986 18.059 4.90377 17.3858 4.74823 16.6399C4.59387 15.8996 4.52555 15.1213 4.50089 14.4397Z" stroke="#040303"/>
<path d="M15.2748 6.21053C15.2748 8.25149 13.5882 9.92105 11.4891 9.92105C9.38995 9.92105 7.70343 8.25149 7.70343 6.21053C7.70343 4.16956 9.38995 2.5 11.4891 2.5C13.5882 2.5 15.2748 4.16956 15.2748 6.21053ZM4.50089 14.4397C4.47314 13.6729 5.12689 13.0263 6.00098 13.0263H17.9948C18.8987 13.0263 19.5608 13.7143 19.4953 14.5055C19.4327 15.2625 19.3134 16.1353 19.0922 16.9572C18.8693 17.7856 18.553 18.5236 18.1198 19.0431C17.2622 20.0713 16.3573 20.6923 15.3476 21.054C14.3287 21.419 13.1735 21.5306 11.799 21.4931C10.385 21.4546 9.1897 21.273 8.15995 20.8308C7.14041 20.393 6.25563 19.6878 5.4795 18.5548C5.13986 18.059 4.90377 17.3858 4.74823 16.6399C4.59387 15.8996 4.52555 15.1213 4.50089 14.4397Z" stroke="black" stroke-opacity="0.2"/>
<path d="M15.2748 6.21053C15.2748 8.25149 13.5882 9.92105 11.4891 9.92105C9.38995 9.92105 7.70343 8.25149 7.70343 6.21053C7.70343 4.16956 9.38995 2.5 11.4891 2.5C13.5882 2.5 15.2748 4.16956 15.2748 6.21053ZM4.50089 14.4397C4.47314 13.6729 5.12689 13.0263 6.00098 13.0263H17.9948C18.8987 13.0263 19.5608 13.7143 19.4953 14.5055C19.4327 15.2625 19.3134 16.1353 19.0922 16.9572C18.8693 17.7856 18.553 18.5236 18.1198 19.0431C17.2622 20.0713 16.3573 20.6923 15.3476 21.054C14.3287 21.419 13.1735 21.5306 11.799 21.4931C10.385 21.4546 9.1897 21.273 8.15995 20.8308C7.14041 20.393 6.25563 19.6878 5.4795 18.5548C5.13986 18.059 4.90377 17.3858 4.74823 16.6399C4.59387 15.8996 4.52555 15.1213 4.50089 14.4397Z" stroke="black" stroke-opacity="0.2"/>
<path d="M15.2748 6.21053C15.2748 8.25149 13.5882 9.92105 11.4891 9.92105C9.38995 9.92105 7.70343 8.25149 7.70343 6.21053C7.70343 4.16956 9.38995 2.5 11.4891 2.5C13.5882 2.5 15.2748 4.16956 15.2748 6.21053ZM4.50089 14.4397C4.47314 13.6729 5.12689 13.0263 6.00098 13.0263H17.9948C18.8987 13.0263 19.5608 13.7143 19.4953 14.5055C19.4327 15.2625 19.3134 16.1353 19.0922 16.9572C18.8693 17.7856 18.553 18.5236 18.1198 19.0431C17.2622 20.0713 16.3573 20.6923 15.3476 21.054C14.3287 21.419 13.1735 21.5306 11.799 21.4931C10.385 21.4546 9.1897 21.273 8.15995 20.8308C7.14041 20.393 6.25563 19.6878 5.4795 18.5548C5.13986 18.059 4.90377 17.3858 4.74823 16.6399C4.59387 15.8996 4.52555 15.1213 4.50089 14.4397Z" stroke="black" stroke-opacity="0.2"/>
<path d="M15.2748 6.21053C15.2748 8.25149 13.5882 9.92105 11.4891 9.92105C9.38995 9.92105 7.70343 8.25149 7.70343 6.21053C7.70343 4.16956 9.38995 2.5 11.4891 2.5C13.5882 2.5 15.2748 4.16956 15.2748 6.21053ZM4.50089 14.4397C4.47314 13.6729 5.12689 13.0263 6.00098 13.0263H17.9948C18.8987 13.0263 19.5608 13.7143 19.4953 14.5055C19.4327 15.2625 19.3134 16.1353 19.0922 16.9572C18.8693 17.7856 18.553 18.5236 18.1198 19.0431C17.2622 20.0713 16.3573 20.6923 15.3476 21.054C14.3287 21.419 13.1735 21.5306 11.799 21.4931C10.385 21.4546 9.1897 21.273 8.15995 20.8308C7.14041 20.393 6.25563 19.6878 5.4795 18.5548C5.13986 18.059 4.90377 17.3858 4.74823 16.6399C4.59387 15.8996 4.52555 15.1213 4.50089 14.4397Z" stroke="black" stroke-opacity="0.2"/>
<path d="M15.2748 6.21053C15.2748 8.25149 13.5882 9.92105 11.4891 9.92105C9.38995 9.92105 7.70343 8.25149 7.70343 6.21053C7.70343 4.16956 9.38995 2.5 11.4891 2.5C13.5882 2.5 15.2748 4.16956 15.2748 6.21053ZM4.50089 14.4397C4.47314 13.6729 5.12689 13.0263 6.00098 13.0263H17.9948C18.8987 13.0263 19.5608 13.7143 19.4953 14.5055C19.4327 15.2625 19.3134 16.1353 19.0922 16.9572C18.8693 17.7856 18.553 18.5236 18.1198 19.0431C17.2622 20.0713 16.3573 20.6923 15.3476 21.054C14.3287 21.419 13.1735 21.5306 11.799 21.4931C10.385 21.4546 9.1897 21.273 8.15995 20.8308C7.14041 20.393 6.25563 19.6878 5.4795 18.5548C5.13986 18.059 4.90377 17.3858 4.74823 16.6399C4.59387 15.8996 4.52555 15.1213 4.50089 14.4397Z" stroke="black" stroke-opacity="0.2"/>
<path d="M15.2748 6.21053C15.2748 8.25149 13.5882 9.92105 11.4891 9.92105C9.38995 9.92105 7.70343 8.25149 7.70343 6.21053C7.70343 4.16956 9.38995 2.5 11.4891 2.5C13.5882 2.5 15.2748 4.16956 15.2748 6.21053ZM4.50089 14.4397C4.47314 13.6729 5.12689 13.0263 6.00098 13.0263H17.9948C18.8987 13.0263 19.5608 13.7143 19.4953 14.5055C19.4327 15.2625 19.3134 16.1353 19.0922 16.9572C18.8693 17.7856 18.553 18.5236 18.1198 19.0431C17.2622 20.0713 16.3573 20.6923 15.3476 21.054C14.3287 21.419 13.1735 21.5306 11.799 21.4931C10.385 21.4546 9.1897 21.273 8.15995 20.8308C7.14041 20.393 6.25563 19.6878 5.4795 18.5548C5.13986 18.059 4.90377 17.3858 4.74823 16.6399C4.59387 15.8996 4.52555 15.1213 4.50089 14.4397Z" stroke="black" stroke-opacity="0.2"/>
<path d="M15.2748 6.21053C15.2748 8.25149 13.5882 9.92105 11.4891 9.92105C9.38995 9.92105 7.70343 8.25149 7.70343 6.21053C7.70343 4.16956 9.38995 2.5 11.4891 2.5C13.5882 2.5 15.2748 4.16956 15.2748 6.21053ZM4.50089 14.4397C4.47314 13.6729 5.12689 13.0263 6.00098 13.0263H17.9948C18.8987 13.0263 19.5608 13.7143 19.4953 14.5055C19.4327 15.2625 19.3134 16.1353 19.0922 16.9572C18.8693 17.7856 18.553 18.5236 18.1198 19.0431C17.2622 20.0713 16.3573 20.6923 15.3476 21.054C14.3287 21.419 13.1735 21.5306 11.799 21.4931C10.385 21.4546 9.1897 21.273 8.15995 20.8308C7.14041 20.393 6.25563 19.6878 5.4795 18.5548C5.13986 18.059 4.90377 17.3858 4.74823 16.6399C4.59387 15.8996 4.52555 15.1213 4.50089 14.4397Z" stroke="black" stroke-opacity="0.2"/>
</svg>
