<svg width="24" height="24" viewBox="0 0 24 24" fill="none" xmlns="http://www.w3.org/2000/svg">
<path d="M16 3H7C4.79086 3 3 4.79086 3 7V18C3 20.2091 4.79086 22 7 22H16M9 12.5H22M22 12.5L17.5 7.5M22 12.5L17.5 17.5" stroke="#040303" stroke-linecap="round" stroke-linejoin="round"/>
<path d="M16 3H7C4.79086 3 3 4.79086 3 7V18C3 20.2091 4.79086 22 7 22H16M9 12.5H22M22 12.5L17.5 7.5M22 12.5L17.5 17.5" stroke="black" stroke-opacity="0.2" stroke-linecap="round" stroke-linejoin="round"/>
<path d="M16 3H7C4.79086 3 3 4.79086 3 7V18C3 20.2091 4.79086 22 7 22H16M9 12.5H22M22 12.5L17.5 7.5M22 12.5L17.5 17.5" stroke="black" stroke-opacity="0.2" stroke-linecap="round" stroke-linejoin="round"/>
<path d="M16 3H7C4.79086 3 3 4.79086 3 7V18C3 20.2091 4.79086 22 7 22H16M9 12.5H22M22 12.5L17.5 7.5M22 12.5L17.5 17.5" stroke="black" stroke-opacity="0.2" stroke-linecap="round" stroke-linejoin="round"/>
<path d="M16 3H7C4.79086 3 3 4.79086 3 7V18C3 20.2091 4.79086 22 7 22H16M9 12.5H22M22 12.5L17.5 7.5M22 12.5L17.5 17.5" stroke="black" stroke-opacity="0.2" stroke-linecap="round" stroke-linejoin="round"/>
<path d="M16 3H7C4.79086 3 3 4.79086 3 7V18C3 20.2091 4.79086 22 7 22H16M9 12.5H22M22 12.5L17.5 7.5M22 12.5L17.5 17.5" stroke="black" stroke-opacity="0.2" stroke-linecap="round" stroke-linejoin="round"/>
<path d="M16 3H7C4.79086 3 3 4.79086 3 7V18C3 20.2091 4.79086 22 7 22H16M9 12.5H22M22 12.5L17.5 7.5M22 12.5L17.5 17.5" stroke="black" stroke-opacity="0.2" stroke-linecap="round" stroke-linejoin="round"/>
<path d="M16 3H7C4.79086 3 3 4.79086 3 7V18C3 20.2091 4.79086 22 7 22H16M9 12.5H22M22 12.5L17.5 7.5M22 12.5L17.5 17.5" stroke="black" stroke-opacity="0.2" stroke-linecap="round" stroke-linejoin="round"/>
</svg>
