<svg width="60" height="60" viewBox="0 0 60 60" fill="none" xmlns="http://www.w3.org/2000/svg">
<g clip-path="url(#clip0_2207_7778)">
<path d="M50.8895 6.47629C51.8198 7.28585 52.6155 8.1631 53.3857 9.12281C53.4783 9.23452 53.5709 9.34624 53.6662 9.46135C56.487 12.9484 58.105 17.1401 58.8188 21.5205C58.8321 21.6007 58.8454 21.681 58.8591 21.7637C58.9407 22.3529 58.9455 22.941 58.9494 23.5348C58.967 26.1475 59.208 28.6474 59.6466 31.2231C60.234 34.6958 59.9234 38.2679 58.9369 41.6374C58.9122 41.7233 58.8874 41.8093 58.8619 41.8978C57.8063 45.4842 55.8743 48.8136 53.2944 51.5346C53.0626 51.7799 52.8433 52.0308 52.6254 52.288C49.3651 55.9831 44.2839 58.4097 39.4995 59.3582C39.3167 59.3945 39.1342 59.4325 38.9523 59.4727C35.8233 60.1576 32.1598 59.9887 29.055 59.2982C28.9301 59.2706 28.8052 59.243 28.6765 59.2146C27.2245 58.8822 25.821 58.4489 24.434 57.9094C24.3208 57.8656 24.2077 57.8219 24.0911 57.7768C23.4894 57.5323 22.9263 57.2549 22.3668 56.9285C21.3826 56.3552 20.406 55.9653 19.3168 55.6316C18.8493 55.4881 18.3843 55.3372 17.919 55.1873C17.7833 55.1439 17.7833 55.1439 17.6449 55.0995C15.3039 54.3471 13.1091 53.352 11.1023 51.9298C10.9321 51.8095 10.9321 51.8095 10.7586 51.6868C4.94328 47.4684 1.43089 41.5988 0.326097 34.5445C0.295655 34.3358 0.265629 34.127 0.23613 33.9181C0.223779 33.8367 0.211427 33.7552 0.198702 33.6713C-0.47128 28.6978 0.662743 23.4435 3.07078 19.0643C3.17948 18.8619 3.17948 18.8619 3.29039 18.6554C4.17519 17.0606 5.23252 15.5906 6.49597 14.269C6.63448 14.1112 6.7723 13.9529 6.90936 13.7939C7.7534 12.8392 8.67393 12.0065 9.68495 11.2281C9.74916 11.1783 9.81337 11.1286 9.87953 11.0773C15.192 6.99067 21.9973 5.2156 28.6638 5.97953C34.8768 6.76873 41.0025 9.74163 44.9635 14.6363C45.1356 14.8475 45.3109 15.0562 45.4903 15.2613C47.0796 17.094 48.2018 19.2971 49.37 21.4035C49.409 21.4035 49.4479 21.4035 49.4881 21.4035C48.662 18.2348 47.2506 15.2298 45.2361 12.6316C45.1203 12.4798 45.1203 12.4798 45.0022 12.325C41.3435 7.65617 36.0215 4.73188 30.118 3.97661C25.9324 3.49421 21.5236 4.23133 17.8049 6.20614C17.6181 6.30532 17.4299 6.40208 17.2417 6.49854C16.417 6.92848 15.6489 7.43089 14.8818 7.95322C14.8818 7.60234 14.8818 7.60234 15.017 7.42599C15.548 6.91619 16.1076 6.45199 16.6844 5.99369C16.9676 5.76365 17.235 5.52537 17.5024 5.27778C25.7712 -2.03934 39.2732 -1.8366 50.8895 6.47629ZM40.5117 2.80702C40.9242 3.1448 41.3833 3.36162 41.8626 3.58918C45.1913 5.20847 48.1259 7.68114 50.3149 10.6433C50.4056 10.7657 50.4964 10.8881 50.5898 11.0143C54.5776 16.5648 56.132 23.4751 55.0476 30.1946C54.059 35.7506 51.3381 40.7505 47.0936 44.5061C46.7786 44.789 46.4791 45.0801 46.181 45.3801C46.7205 45.2086 47.0983 44.904 47.5171 44.5395C47.6196 44.4517 47.6196 44.4517 47.7241 44.3621C47.8593 44.2461 47.9942 44.1298 48.1288 44.0132C48.2694 43.892 48.4118 43.7729 48.5548 43.6545C49.9061 42.5281 51.1259 41.2542 52.1741 39.8478C52.3188 39.6544 52.4667 39.4637 52.6153 39.2731C54.5741 36.7142 55.9017 33.659 56.5747 30.5263C56.6092 30.3725 56.6092 30.3725 56.6444 30.2156C57.2937 27.2235 57.3631 23.8172 56.6928 20.8187C56.6687 20.7107 56.6446 20.6026 56.6198 20.4913C56.1023 18.2462 55.3048 16.181 54.2125 14.152C54.1759 14.0828 54.1392 14.0135 54.1015 13.9421C52.6096 11.1389 50.3387 8.61575 47.8346 6.66667C47.6557 6.52374 47.6557 6.52374 47.4733 6.37792C46.5419 5.64127 45.5646 5.02447 44.5275 4.44444C44.4547 4.40312 44.3819 4.36179 44.3069 4.3192C42.5043 3.25694 42.5043 3.25694 40.5117 2.80702ZM34.8424 3.04094C35.1528 3.2458 35.3738 3.34698 35.7209 3.46126C40.228 4.98701 44.2131 7.85301 47.0078 11.6959C47.0561 11.7613 47.1044 11.8267 47.1541 11.8941C51.0555 17.2297 52.5634 24.1485 51.6187 30.6282C51.1865 33.2827 50.4334 35.8824 49.1392 38.2532C49.0138 38.4829 48.8916 38.7142 48.7693 38.9455C48.1349 40.124 47.3792 41.1821 46.5353 42.2222C46.4764 42.2949 46.4174 42.3677 46.3566 42.4426C44.8829 44.2405 43.1676 45.6298 41.2204 46.9006C41.2983 46.9392 41.3763 46.9778 41.4566 47.0175C41.6755 46.9219 41.6755 46.9219 41.9124 46.7672C42.0505 46.6816 42.0505 46.6816 42.1913 46.5943C42.2899 46.5313 42.3885 46.4684 42.4901 46.4035C42.5913 46.3394 42.6924 46.2752 42.7967 46.2091C46.008 44.145 48.6438 41.417 50.5511 38.1287C50.6145 38.0198 50.6145 38.0198 50.6792 37.9088C53.7709 32.5478 54.5034 26.0635 52.9133 20.117C52.1266 17.2897 50.8698 14.6591 49.1485 12.2734C49.0989 12.2046 49.0493 12.1359 48.9982 12.065C48.6057 11.5297 48.1799 11.0352 47.7238 10.5514C47.5083 10.3222 47.3059 10.0872 47.1037 9.84649C45.5786 8.12446 43.695 6.74383 41.6928 5.61403C41.6138 5.56899 41.5347 5.52395 41.4533 5.47754C39.5785 4.42088 37.0461 3.04094 34.8424 3.04094ZM9.56684 13.9181C9.45387 14.0238 9.3409 14.1295 9.2245 14.2384C4.88008 18.3777 2.24612 24.4796 2.1019 30.4354C2.07636 32.685 2.24319 34.8736 2.71645 37.076C2.75542 37.076 2.7944 37.076 2.83456 37.076C2.8274 36.9765 2.82024 36.877 2.81287 36.7745C2.78533 36.3801 2.75979 35.9857 2.73467 35.5912C2.71663 35.3244 2.69544 35.0578 2.674 34.7912C2.21099 28.4983 4.45948 22.2669 8.58084 17.4944C8.70823 17.3468 8.83361 17.1975 8.95829 17.0477C9.15456 16.8161 9.35783 16.5948 9.56684 16.3743C9.62424 16.3136 9.68164 16.253 9.74078 16.1905C14.4413 11.2685 21.0121 8.58735 27.8144 8.38764C30.6758 8.35191 33.6837 8.80304 36.343 9.8632C36.6292 9.97352 36.6292 9.97352 36.9684 9.82456C34.6736 8.75485 32.3743 8.06728 29.8818 7.60234C29.7977 7.58664 29.7136 7.57094 29.627 7.55477C22.5883 6.31022 14.6795 9.1139 9.56684 13.9181ZM17.3427 12.629C17.1123 12.7561 16.8794 12.878 16.6461 12.9998C15.5793 13.5648 14.637 14.2148 13.7007 14.9708C13.5946 15.052 13.4885 15.1333 13.3791 15.217C11.8247 16.4253 10.5004 17.8442 9.33062 19.4152C9.28028 19.4813 9.22994 19.5475 9.17808 19.6156C6.4325 23.2232 4.60938 27.9338 4.58222 32.4804C4.58139 32.5738 4.58056 32.6673 4.57971 32.7636C4.57765 33.0631 4.57689 33.3627 4.57668 33.6623C4.5766 33.7647 4.57652 33.867 4.57644 33.9725C4.57829 35.4632 4.62201 36.9042 4.96054 38.3626C4.98395 38.467 5.00736 38.5715 5.03148 38.6791C5.15079 39.2043 5.27553 39.7282 5.4113 40.2495C5.43254 40.3313 5.45379 40.4132 5.47569 40.4976C5.54434 40.7279 5.54434 40.7279 5.78731 40.9357C5.773 40.8561 5.75869 40.7765 5.74394 40.6944C5.44928 39.0065 5.26928 37.3689 5.27796 35.6579C5.27828 35.5246 5.27828 35.5246 5.27861 35.3887C5.28788 33.1057 5.58525 30.9582 6.25975 28.7719C6.28388 28.6921 6.30802 28.6122 6.33288 28.53C7.51594 24.6965 9.73972 21.3493 12.5196 18.4795C12.612 18.3832 12.7044 18.2869 12.7996 18.1876C17.2681 13.6365 23.735 11.0927 30.086 10.9608C33.8308 10.9272 37.9835 11.6501 41.2033 13.6609C41.3287 13.7303 41.3287 13.7303 41.4566 13.8012C41.5346 13.7626 41.6125 13.724 41.6928 13.6842C34.7164 8.87735 24.7625 8.51806 17.3427 12.629ZM19.6062 15.2047C19.4018 15.3123 19.4018 15.3123 19.1933 15.4221C16.1406 17.0829 14.4216 18.8114 13.4137 22.1523C11.7126 28.0261 12.5458 33.9552 15.4885 39.2992C16.8802 41.7489 18.7746 44.0142 21.0235 45.731C21.147 45.8309 21.2702 45.9311 21.3931 46.0316C24.0626 48.1963 27.2527 50.1669 30.8267 49.8246C31.6254 49.7193 32.4072 49.5481 33.1889 49.3567C33.2746 49.3361 33.3602 49.3154 33.4485 49.2941C38.9495 47.9304 43.9347 44.2635 46.8675 39.4664C49.5792 34.8791 51.2728 28.9348 50.0787 23.6257C49.225 20.8852 46.7798 18.5425 44.5275 16.8421C44.4069 16.75 44.2863 16.6579 44.1621 16.563C40.9399 14.1594 36.9727 12.7026 32.9527 12.3977C32.8602 12.3894 32.7678 12.3811 32.6725 12.3725C28.1835 11.9832 23.5497 13.0783 19.6062 15.2047ZM41.6928 13.8012C41.7318 13.8784 41.7708 13.9556 41.8109 14.0351C41.8889 13.9965 41.9668 13.9579 42.0472 13.9181C41.9302 13.8795 41.8133 13.8409 41.6928 13.8012ZM13.3464 20C10.4867 22.9123 8.51855 26.71 7.55896 30.6433C7.5343 30.7443 7.50964 30.8453 7.48422 30.9494C6.81193 33.8567 6.79602 37.2002 7.44085 40.117C7.46432 40.2239 7.48779 40.3309 7.51196 40.4411C8.7375 45.8409 11.892 50.75 16.6237 53.7774C17.3798 54.2508 18.1547 54.6891 18.9418 55.1096C19.0283 55.1563 19.1147 55.203 19.2038 55.2511C19.4128 55.3602 19.6272 55.4589 19.8424 55.5556C19.9204 55.517 19.9983 55.4784 20.0787 55.4386C20.0252 55.3993 19.9718 55.36 19.9168 55.3194C18.8406 54.5239 17.7927 53.7225 16.8262 52.7966C16.6454 52.6239 16.4624 52.4538 16.2793 52.2834C11.6558 47.9157 9.19947 41.3956 8.96106 35.1572C8.89023 30.93 9.83869 26.5138 11.929 22.807C12.0122 22.6498 12.0947 22.4923 12.1768 22.3346C12.5609 21.5996 12.9485 20.8885 13.4645 20.2339C13.406 20.1181 13.406 20.1181 13.3464 20ZM11.5747 26.5497C10.4661 32.3691 11.7287 38.7087 15.0749 43.6283C15.8792 44.7822 16.7331 45.89 17.7164 46.9006C17.7815 46.9687 17.8466 47.0368 17.9137 47.1069C22.1889 51.5634 28.1886 54.3503 34.4249 54.5285C38.8145 54.6082 43.029 53.6779 46.8897 51.5789C46.9623 51.5397 47.035 51.5004 47.1098 51.4599C48.7011 50.5874 50.1254 49.4828 51.496 48.3041C51.0191 48.3041 50.853 48.4862 50.4699 48.7646C47.6002 50.7935 44.232 52.1149 40.7479 52.6316C40.5419 52.6626 40.5419 52.6626 40.3317 52.6942C39.1325 52.8596 37.9567 52.9033 36.747 52.8947C36.6069 52.8941 36.6069 52.8941 36.464 52.8935C35.1255 52.8868 33.7998 52.8753 32.4802 52.6316C32.386 52.6146 32.2917 52.5976 32.1946 52.5801C28.0612 51.8055 24.2063 50.1923 20.9054 47.6023C20.8081 47.5285 20.7108 47.4546 20.6106 47.3785C19.4306 46.4699 18.3129 45.4714 17.3621 44.3275C17.2729 44.226 17.1837 44.1246 17.0918 44.02C13.7049 40.121 11.5338 34.9224 11.5599 29.7515C11.5602 29.6407 11.5604 29.5299 11.5606 29.4158C11.5665 28.4571 11.6154 27.5053 11.6928 26.5497C11.6538 26.5497 11.6149 26.5497 11.5747 26.5497ZM58.8188 28.3041C58.6397 29.0002 58.4648 29.6965 58.3081 30.3979C57.783 32.7223 57.0084 34.8631 55.8661 36.9591C55.7573 37.1617 55.7573 37.1617 55.6464 37.3684C53.9575 40.4094 51.5992 43.089 48.7794 45.1462C48.6611 45.2335 48.5428 45.3208 48.421 45.4107C44.9584 47.8751 41.0589 49.3367 36.8503 49.9415C36.7124 49.9618 36.5746 49.9821 36.4325 50.003C35.7801 50.0822 35.1262 50.0856 34.4696 50.0955C34.3347 50.0979 34.1997 50.1003 34.0606 50.1029C33.6322 50.1105 33.2039 50.1174 32.7755 50.1243C32.4839 50.1293 32.1923 50.1344 31.9007 50.1396C31.1884 50.1521 30.4761 50.164 29.7637 50.1754C30.0883 50.3897 30.2368 50.4537 30.6029 50.5263C30.6998 50.5456 30.7967 50.5649 30.8966 50.5848C30.9977 50.6041 31.0989 50.6234 31.2032 50.6433C31.2984 50.6626 31.3936 50.6819 31.4917 50.7018C33.1045 51.0165 34.6925 51.1561 36.3336 51.1477C36.4205 51.1474 36.5075 51.1472 36.5971 51.147C38.0811 51.1409 39.5259 51.0512 40.9842 50.7602C41.0816 50.7408 41.1791 50.7213 41.2796 50.7013C47.314 49.4442 52.2729 45.9704 55.6767 40.9251C57.1247 38.7222 58.0372 36.2467 58.5826 33.6842C58.6034 33.5866 58.6243 33.4891 58.6457 33.3886C58.9892 31.7008 58.9768 30.0197 58.9369 28.3041C58.8979 28.3041 58.859 28.3041 58.8188 28.3041ZM10.0393 31.5789C9.93115 38.5602 11.8507 45.2078 16.8182 50.3307C16.946 50.4625 17.0731 50.5949 17.1997 50.7279C21.4205 55.152 27.3638 57.5894 33.4735 57.8034C39.043 57.929 44.4791 56.2289 48.8975 52.8655C48.5091 52.8655 48.3818 52.9307 48.0491 53.114C47.9505 53.1673 47.8519 53.2206 47.7504 53.2755C47.6442 53.3332 47.538 53.3908 47.4286 53.4503C45.4075 54.5188 43.3388 55.2915 41.1023 55.7895C40.9914 55.8142 40.8805 55.839 40.7662 55.8645C37.1457 56.6302 33.2399 56.4898 29.6456 55.6725C29.5332 55.6475 29.4209 55.6225 29.3051 55.5967C22.8983 54.1157 17.2584 49.8635 13.7874 44.3882C11.3663 40.4773 10.2617 36.1529 10.1574 31.5789C10.1184 31.5789 10.0794 31.5789 10.0393 31.5789ZM5.78731 41.0526C5.90542 41.2865 5.90542 41.2865 5.90542 41.2865L5.78731 41.0526ZM45.9448 45.3801C45.8279 45.5538 45.8279 45.5538 45.7086 45.731C45.8645 45.6538 46.0204 45.5766 46.181 45.4971C46.1031 45.4585 46.0251 45.4199 45.9448 45.3801ZM45.4724 45.731C45.4334 45.8082 45.3944 45.8854 45.3542 45.9649C45.4712 45.9263 45.5881 45.8877 45.7086 45.848C45.6306 45.8094 45.5527 45.7708 45.4724 45.731ZM44.5275 46.3158C44.4885 46.393 44.4495 46.4702 44.4094 46.5497C44.5263 46.5111 44.6432 46.4725 44.7637 46.4328C44.6857 46.3942 44.6078 46.3556 44.5275 46.3158ZM49.0157 52.5146C48.9767 52.5918 48.9377 52.669 48.8975 52.7485C49.0145 52.7099 49.1314 52.6713 49.2519 52.6316C49.1739 52.593 49.096 52.5544 49.0157 52.5146Z" fill="#03172C"/>
<path d="M21.2598 27.0175C22.468 27.0175 23.6763 27.0175 24.9212 27.0175C24.5697 28.7578 24.5697 28.7578 23.8582 29.3567C24.0175 29.8055 24.2217 30.1347 24.5225 30.5044C24.6345 30.643 24.6345 30.643 24.7486 30.7844C24.8056 30.8537 24.8625 30.9229 24.9212 30.9942C24.9413 30.9179 24.9614 30.8416 24.9821 30.763C25.2638 29.757 25.6854 29.0139 26.5747 28.4211C26.8368 28.3429 26.8368 28.3429 27.0472 28.3041C27.0216 28.2406 26.996 28.1771 26.9696 28.1118C26.9368 28.0281 26.9039 27.9444 26.87 27.8582C26.8371 27.7754 26.8042 27.6926 26.7703 27.6074C26.6928 27.3684 26.6928 27.3684 26.6928 27.0175C27.0046 27.0175 27.3164 27.0175 27.6377 27.0175C27.836 27.5165 28.0335 28.0157 28.2303 28.5152C28.2972 28.6848 28.3643 28.8542 28.4317 29.0236C28.529 29.2685 28.6255 29.5136 28.7219 29.7588C28.7666 29.8705 28.7666 29.8705 28.8122 29.9845C29.0177 30.51 29.1621 31.0314 29.2912 31.5789C28.8926 31.5936 28.8926 31.5936 28.4645 31.5789C28.3865 31.5018 28.3086 31.4246 28.2283 31.345C28.2283 31.2292 28.2283 31.1135 28.2283 30.9942C28.0882 31.0266 27.9481 31.059 27.8038 31.0924C27.3005 31.2059 26.7957 31.308 26.2887 31.4039C26.0959 31.4407 25.9034 31.4792 25.7114 31.5201C25.154 31.6345 24.6593 31.7018 24.0944 31.5789C23.6841 31.2617 23.4264 30.8441 23.1629 30.4066C22.9493 30.0373 22.9493 30.0373 22.6009 29.9516C22.4296 29.9454 22.258 29.9415 22.0865 29.9415C22.0893 30.0303 22.092 30.1191 22.0948 30.2106C22.098 30.385 22.098 30.385 22.1013 30.5629C22.104 30.6782 22.1068 30.7935 22.1096 30.9124C22.0865 31.2281 22.0865 31.2281 21.8503 31.5789C21.6944 31.5789 21.5385 31.5789 21.3779 31.5789C21.0679 30.7674 21.1111 29.9589 21.1195 29.1009C21.1196 28.9523 21.1196 28.8037 21.1197 28.6506C21.125 27.5513 21.125 27.5513 21.2598 27.0175ZM22.0865 27.8363C22.0865 28.2608 22.0865 28.6854 22.0865 29.1228C22.7991 28.9227 23.2627 28.778 23.7401 28.1871C23.779 28.0713 23.818 27.9556 23.8582 27.8363C23.2735 27.8363 22.6889 27.8363 22.0865 27.8363ZM26.4566 29.5906C26.167 29.8732 26.167 29.8732 25.9842 30.1754C26.0231 30.2912 26.0621 30.407 26.1023 30.5263C26.934 30.4422 26.934 30.4422 27.7558 30.2924C27.6871 29.6715 27.6871 29.6715 27.4015 29.1228C27.0042 29.1228 26.7683 29.3623 26.4566 29.5906Z" fill="#03172C"/>
<path d="M32.9527 34.7368C33.1178 35.0299 33.2333 35.285 33.3462 35.5976C33.3961 35.7277 33.3961 35.7277 33.447 35.8604C33.5168 36.044 33.5856 36.2281 33.6532 36.4125C33.7566 36.6941 33.8635 36.9742 33.9711 37.2542C34.0386 37.4329 34.1059 37.6117 34.173 37.7906C34.2047 37.8742 34.2365 37.9578 34.2691 38.0439C34.4262 38.4754 34.5267 38.8383 34.4881 39.2982C34.0895 39.2617 34.0895 39.2617 33.6613 39.1813C33.5834 39.0655 33.5054 38.9497 33.4251 38.8304C33.3574 38.8404 33.2897 38.8504 33.2199 38.8608C32.6762 38.9407 32.1322 39.018 31.5875 39.0913C31.2206 39.1408 30.8615 39.1974 30.4977 39.2676C30.1457 39.3266 29.8785 39.3637 29.5275 39.2982C29.1293 39.0014 28.8604 38.6522 28.5826 38.2456C28.2552 37.7621 28.2552 37.7621 27.7263 37.5658C27.5655 37.5549 27.5655 37.5549 27.4015 37.5439C27.4042 37.6411 27.407 37.7383 27.4098 37.8385C27.413 38.0292 27.413 38.0292 27.4163 38.2237C27.419 38.3499 27.4217 38.4761 27.4246 38.6061C27.4015 38.9474 27.4015 38.9474 27.1653 39.2982C27.0094 39.2982 26.8535 39.2982 26.6928 39.2982C26.3841 38.3739 26.4304 37.456 26.4418 36.4912C26.4491 35.6228 26.4491 35.6228 26.4566 34.7368C27.6649 34.7368 28.8731 34.7368 30.118 34.7368C29.9845 35.7947 29.9845 35.7947 29.7858 36.1623C29.7485 36.2339 29.7112 36.3055 29.6728 36.3793C29.4887 36.6693 29.2748 36.9288 29.055 37.193C29.2293 37.4272 29.404 37.6611 29.5791 37.8947C29.6289 37.9617 29.6786 38.0286 29.7298 38.0976C29.8563 38.266 29.9869 38.4315 30.118 38.5965C30.157 38.5965 30.196 38.5965 30.2361 38.5965C30.2521 38.5145 30.2681 38.4325 30.2846 38.3479C30.5126 37.3526 30.9074 36.7332 31.7494 36.1403C32.0078 36.0234 32.0078 36.0234 32.244 36.0234C32.1271 35.5988 32.0101 35.1743 31.8897 34.7368C32.5536 34.5725 32.5536 34.5725 32.9527 34.7368ZM27.4015 35.4386C27.4015 35.8632 27.4015 36.2877 27.4015 36.7251C27.993 36.6694 28.3589 36.5148 28.8188 36.1403C28.9357 35.9088 29.0527 35.6772 29.1731 35.4386C28.5885 35.4386 28.0038 35.4386 27.4015 35.4386ZM32.4802 36.7251C32.282 36.8892 32.0854 37.0553 31.8897 37.2222C31.7801 37.3145 31.6704 37.4068 31.5575 37.5018C31.2456 37.7722 31.2456 37.7722 31.2991 38.2456C31.9179 38.1811 32.4771 38.0784 33.0708 37.8947C33.0177 37.7214 32.9633 37.5485 32.9084 37.3757C32.8782 37.2794 32.8481 37.183 32.817 37.0838C32.739 36.8213 32.739 36.8213 32.4802 36.7251Z" fill="#03172C"/>
<path d="M17.4802 19.2982C18.6105 19.2982 19.7409 19.2982 20.9054 19.2982C20.7871 20.3528 20.669 20.702 19.9605 21.4035C19.9605 21.4807 19.9605 21.5579 19.9605 21.6374C20.0482 21.7194 20.1359 21.8015 20.2263 21.886C20.8343 22.5154 21.0235 22.9832 21.0235 23.8596C19.8153 23.8596 18.607 23.8596 17.3621 23.8596C17.2356 23.108 17.2223 22.404 17.2219 21.6447C17.2204 21.5097 17.219 21.3747 17.2175 21.2356C17.2172 21.1042 17.217 20.9728 17.2168 20.8374C17.2163 20.7188 17.2158 20.6002 17.2153 20.4779C17.244 20.117 17.244 20.117 17.4802 19.2982ZM18.1889 20.117C18.1889 20.4643 18.1889 20.8117 18.1889 21.1696C18.827 21.119 19.2291 20.9935 19.7243 20.5848C19.7633 20.4304 19.8023 20.276 19.8424 20.117C19.2968 20.117 18.7511 20.117 18.1889 20.117ZM18.1889 21.9883C18.1889 22.3357 18.1889 22.683 18.1889 23.0409C18.7735 23.0409 19.3582 23.0409 19.9605 23.0409C19.728 22.4652 19.6509 22.3461 19.1204 22.0719C18.8035 21.953 18.5229 21.956 18.1889 21.9883Z" fill="#03172C"/>
<path d="M36.9684 34.6199C37.8618 34.6947 38.4738 35.483 39.0266 36.1193C39.2507 36.3961 39.4705 36.6749 39.6849 36.9591C39.6907 36.8392 39.6965 36.7193 39.7025 36.5959C39.7113 36.4367 39.7203 36.2776 39.7292 36.1184C39.7329 36.0396 39.7365 35.9609 39.7403 35.8797C39.7677 35.4156 39.8366 35.0401 40.0393 34.6199C40.3272 34.6637 40.3272 34.6637 40.6298 34.7368C40.851 35.1749 40.8005 35.7012 40.8218 36.1842C40.8295 36.3589 40.8295 36.3589 40.8374 36.5371C40.9202 38.6915 40.9202 38.6915 40.5117 39.2982C40.2386 39.2982 40.2386 39.2982 39.9212 39.1813C39.8344 38.9586 39.7492 38.7351 39.6757 38.5079C39.3073 37.6205 38.3546 36.9167 37.6771 36.2573C37.6741 36.3453 37.6712 36.4332 37.6681 36.5239C37.6545 36.9199 37.6399 37.316 37.6254 37.712C37.6208 37.8505 37.6161 37.9889 37.6113 38.1316C37.6064 38.2632 37.6014 38.3947 37.5963 38.5302C37.592 38.6521 37.5877 38.774 37.5832 38.8996C37.559 39.1813 37.559 39.1813 37.4409 39.2982C37.2047 39.303 36.9684 39.3032 36.7322 39.2982C36.6523 38.3407 36.6 37.3863 36.5919 36.4254C36.5904 36.3379 36.5889 36.2503 36.5873 36.1601C36.5864 35.6408 36.6463 35.2242 36.8503 34.7368C36.8893 34.6982 36.9283 34.6596 36.9684 34.6199Z" fill="#03172C"/>
<path d="M31.4172 27.0175C32.2766 26.9531 32.2766 26.9531 32.6579 27.2405C32.7381 27.3406 32.8183 27.4407 32.901 27.5439C32.989 27.65 33.077 27.7561 33.1677 27.8655C33.2526 27.9716 33.3376 28.0778 33.4251 28.1871C33.5791 28.3634 33.734 28.539 33.8902 28.7134C33.9546 28.787 34.019 28.8606 34.0853 28.9364C34.2146 29.0811 34.3502 29.2201 34.4881 29.3567C34.5271 28.5848 34.5661 27.8129 34.6062 27.0175C34.879 27.0175 35.1519 27.0175 35.433 27.0175C35.5366 27.4591 35.5663 27.8685 35.5668 28.3215C35.5669 28.4584 35.5671 28.5952 35.5672 28.7363C35.5668 28.8783 35.5663 29.0203 35.5659 29.1667C35.5665 29.3783 35.5665 29.3783 35.5672 29.5943C35.5665 30.2675 35.5574 30.9163 35.433 31.5789C35.1601 31.5789 34.8873 31.5789 34.6062 31.5789C34.598 31.457 34.5898 31.335 34.5813 31.2093C34.4726 30.6858 34.3164 30.5013 33.9418 30.1243C33.8429 30.0231 33.7439 29.9219 33.6419 29.8177C33.5898 29.7651 33.5377 29.7125 33.484 29.6583C33.1368 29.2962 32.8098 28.9159 32.4802 28.538C32.4773 28.6141 32.4743 28.6902 32.4713 28.7686C32.4576 29.1133 32.4431 29.458 32.4286 29.8026C32.4239 29.9224 32.4193 30.0422 32.4145 30.1656C32.4095 30.2806 32.4046 30.3955 32.3995 30.514C32.393 30.6729 32.393 30.6729 32.3864 30.8351C32.3621 31.1111 32.3621 31.1111 32.244 31.462C32.0088 31.5066 31.7724 31.5454 31.5353 31.5789C31.2871 31.3331 31.3614 30.8217 31.3434 30.4825C31.3381 30.3843 31.3328 30.2862 31.3273 30.1851C31.2794 29.1248 31.3395 28.0751 31.4172 27.0175Z" fill="#03172C"/>
<path d="M42.4938 34.6044C42.6575 34.6041 42.6575 34.6041 42.8246 34.6039C42.9383 34.6043 43.052 34.6048 43.1692 34.6053C43.3398 34.6046 43.3398 34.6046 43.5138 34.6039C43.623 34.604 43.7322 34.6042 43.8446 34.6044C43.9943 34.6045 43.9943 34.6045 44.1471 34.6047C44.4094 34.6199 44.4094 34.6199 44.7637 34.7368C44.7858 35.0146 44.7858 35.0146 44.7637 35.3216C44.3159 35.6173 43.9595 35.5818 43.4423 35.5702C43.3538 35.5691 43.2653 35.5681 43.174 35.567C42.9559 35.5642 42.7377 35.56 42.5196 35.5556C42.5196 35.8643 42.5196 36.1731 42.5196 36.4912C42.7053 36.4872 42.7053 36.4872 42.8947 36.483C43.0575 36.4808 43.2204 36.4787 43.3833 36.4766C43.4648 36.4746 43.5463 36.4727 43.6303 36.4707C44.0753 36.4664 44.2658 36.4744 44.6456 36.7251C44.6066 36.9181 44.5676 37.1111 44.5275 37.3099C44.1069 37.4487 43.7671 37.4382 43.3242 37.4342C43.174 37.4332 43.0237 37.4321 42.8689 37.431C42.696 37.429 42.696 37.429 42.5196 37.4269C42.5196 37.7357 42.5196 38.0444 42.5196 38.3626C43.2601 38.3626 44.0007 38.3626 44.7637 38.3626C44.7637 38.6327 44.7637 38.9029 44.7637 39.1813C44.4493 39.3369 44.2101 39.3114 43.8585 39.3097C43.7392 39.3094 43.6199 39.3091 43.4969 39.3088C43.3449 39.3077 43.1929 39.3067 43.0363 39.3056C42.3128 39.3019 42.3128 39.3019 41.5747 39.2982C41.5747 37.793 41.5747 36.2877 41.5747 34.7368C41.9172 34.6238 42.1376 34.6048 42.4938 34.6044Z" fill="#03172C"/>
<path d="M25.6298 19.2982C26.8771 19.2982 28.1243 19.2982 29.4094 19.2982C29.4094 20.2339 29.4094 20.2339 29.2317 20.4971C29.1515 20.5646 29.0713 20.6322 28.9886 20.7018C28.6501 21.0039 28.3339 21.3026 28.0363 21.6447C27.9701 21.7209 27.9039 21.797 27.8356 21.8755C27.7703 21.9513 27.705 22.0271 27.6377 22.1053C27.5687 22.1847 27.4998 22.2642 27.4287 22.346C27.2618 22.5384 27.0954 22.7311 26.929 22.924C27.0789 22.9219 27.0789 22.9219 27.2317 22.9199C27.9703 22.914 28.6794 22.9276 29.4094 23.0409C29.4094 23.3111 29.4094 23.5813 29.4094 23.8596C26.662 24.1706 26.662 24.1706 25.6298 23.7427C25.5117 23.5088 25.5117 23.5088 25.6224 23.1579C26.1391 22.0426 27.1603 21.1262 27.992 20.2339C27.2125 20.1953 26.433 20.1567 25.6298 20.117C25.6298 19.8468 25.6298 19.5766 25.6298 19.2982Z" fill="#03172C"/>
<path d="M36.3779 27.0175C37.4302 27.0175 38.4826 27.0175 39.5668 27.0175C39.5279 27.2877 39.4889 27.5579 39.4487 27.8363C38.7082 27.8363 37.9676 27.8363 37.2046 27.8363C37.2046 28.1836 37.2046 28.531 37.2046 28.8889C37.2826 28.8503 37.3605 28.8117 37.4409 28.7719C37.6718 28.7576 37.9033 28.7514 38.1348 28.75C38.2587 28.7483 38.3826 28.7467 38.5103 28.745C38.8506 28.7713 39.0427 28.8316 39.3306 29.0058C39.2273 29.576 39.2273 29.576 39.0944 29.7076C38.7759 29.7162 38.4605 29.7184 38.1421 29.7149C38.0525 29.7144 37.9629 29.7139 37.8706 29.7133C37.6486 29.7119 37.4266 29.7098 37.2046 29.7076C37.2436 30.0164 37.2826 30.3251 37.3227 30.6433C37.4254 30.6406 37.528 30.6378 37.6337 30.6351C37.7698 30.6329 37.9059 30.6308 38.0462 30.6287C38.1805 30.6259 38.3147 30.6232 38.4531 30.6204C38.865 30.6437 39.1836 30.7307 39.5668 30.8772C39.5447 31.0965 39.5447 31.0965 39.4487 31.345C39.0412 31.5475 38.7107 31.6073 38.2579 31.6018C38.1479 31.601 38.0379 31.6003 37.9246 31.5995C37.8112 31.5975 37.6979 31.5956 37.5811 31.5936C37.4655 31.5925 37.3498 31.5915 37.2307 31.5904C36.9464 31.5876 36.6621 31.5838 36.3779 31.5789C36.2912 31.0411 36.2446 30.5248 36.2441 29.9804C36.2439 29.8374 36.2438 29.6943 36.2436 29.547C36.2441 29.3998 36.2445 29.2526 36.245 29.1009C36.2445 28.9523 36.2441 28.8037 36.2436 28.6506C36.2438 28.5081 36.2439 28.3655 36.2441 28.2187C36.2442 28.0891 36.2443 27.9596 36.2445 27.8261C36.2598 27.4854 36.2598 27.4854 36.3779 27.0175Z" fill="#03172C"/>
<path d="M40.1574 27.0175C41.2098 27.0175 42.2621 27.0175 43.3464 27.0175C43.3464 27.2877 43.3464 27.5579 43.3464 27.8363C42.6058 27.8363 41.8653 27.8363 41.1023 27.8363C41.0633 28.1836 41.0243 28.531 40.9842 28.8889C41.1011 28.8503 41.218 28.8117 41.3385 28.7719C41.9926 28.7395 42.4902 28.8012 43.1101 29.0058C43.1491 29.1602 43.1881 29.3146 43.2283 29.4737C42.7908 29.7516 42.4098 29.7316 41.8995 29.7222C41.7503 29.7201 41.6011 29.718 41.4474 29.7158C41.3335 29.7131 41.2196 29.7104 41.1023 29.7076C41.1023 30.055 41.1023 30.4023 41.1023 30.7602C41.8428 30.7602 42.5834 30.7602 43.3464 30.7602C43.3464 31.0304 43.3464 31.3006 43.3464 31.5789C42.294 31.5789 41.2416 31.5789 40.1574 31.5789C40.1574 30.0737 40.1574 28.5684 40.1574 27.0175Z" fill="#03172C"/>
<path d="M31.181 19.2982C31.831 19.2553 31.831 19.2553 32.0659 19.4271C32.7592 20.2914 33.1267 21.5069 33.4768 22.5439C33.5074 22.6344 33.5379 22.725 33.5694 22.8182C33.6867 23.1773 33.7794 23.4799 33.7794 23.8597C33.4227 23.8104 33.1174 23.7646 32.7903 23.6111C32.2599 23.436 31.7464 23.5862 31.2105 23.6865C30.6412 23.793 30.1104 23.8909 29.5275 23.8597C29.5888 22.7023 29.7418 21.9121 30.5905 21.0526C30.8594 20.8738 31.1276 20.731 31.4172 20.5848C31.3393 20.1602 31.2613 19.7357 31.181 19.2982ZM31.7716 21.4035C31.1267 21.8086 31.1267 21.8086 30.5905 22.3392C30.5905 22.4936 30.5905 22.648 30.5905 22.807C30.7972 22.7904 31.0039 22.7733 31.2105 22.7558C31.3256 22.7464 31.4407 22.7369 31.5593 22.7271C31.8383 22.6958 32.0927 22.6487 32.3621 22.5731C32.3111 22.0173 32.2053 21.7637 31.7716 21.4035Z" fill="#03172C"/>
<path d="M25.2755 34.6199C25.4704 34.6971 25.6653 34.7743 25.8661 34.8538C25.877 35.521 25.7817 35.9328 25.3272 36.4401C25.194 36.5762 25.0594 36.711 24.9212 36.8421C24.9696 36.9042 25.018 36.9663 25.0679 37.0303C25.1315 37.113 25.1952 37.1956 25.2607 37.2807C25.3238 37.3621 25.3868 37.4435 25.4517 37.5274C25.8671 38.1114 25.8897 38.4781 25.8661 39.1813C25.5737 39.2392 25.5737 39.2392 25.2755 39.2982C24.9653 38.9771 24.8925 38.7159 24.8252 38.2895C24.7768 38.015 24.7768 38.015 24.6849 37.7778C24.194 37.5064 23.7169 37.5072 23.1495 37.4269C23.1105 38.0058 23.0716 38.5848 23.0314 39.1813C22.7391 39.2392 22.7391 39.2392 22.4409 39.2982C22.01 38.8716 22.0715 38.2557 22.0708 37.6791C22.0707 37.5526 22.0705 37.4261 22.0704 37.2958C22.0708 37.1654 22.0713 37.035 22.0718 36.9006C22.0713 36.7702 22.0708 36.6398 22.0704 36.5054C22.0705 36.3789 22.0707 36.2524 22.0708 36.1221C22.071 36.0077 22.0711 35.8934 22.0712 35.7755C22.0873 35.4214 22.139 35.085 22.2046 34.7368C22.4851 34.7222 22.4851 34.7222 22.7952 34.7368C23.0314 34.9708 23.0314 34.9708 23.0545 35.3518C23.0504 35.5757 23.0504 35.5757 23.0462 35.8041C23.044 35.954 23.0419 36.1038 23.0397 36.2582C23.037 36.3737 23.0342 36.4892 23.0314 36.6082C23.6496 36.472 24.1731 36.347 24.5664 35.8311C24.6866 35.6046 24.8005 35.3748 24.9069 35.1416C25.0393 34.8538 25.0393 34.8538 25.2755 34.6199Z" fill="#03172C"/>
<path d="M22.7952 19.2982C23.107 19.2982 23.4188 19.2982 23.7401 19.2982C24.1569 20.2442 24.5302 21.206 24.899 22.1711C24.9474 22.2963 24.9957 22.4216 25.0455 22.5507C25.0905 22.6692 25.1355 22.7877 25.1818 22.9098C25.2226 23.0166 25.2634 23.1235 25.3054 23.2335C25.3936 23.5088 25.3936 23.5088 25.3936 23.8596C25.0024 23.8889 25.0024 23.8889 24.5668 23.8596C24.3625 23.6239 24.3625 23.6239 24.2125 23.3918C24.1405 23.406 24.0684 23.4202 23.9942 23.4348C23.666 23.499 23.3376 23.5624 23.0093 23.6257C22.8959 23.648 22.7826 23.6704 22.6658 23.6933C22.5558 23.7145 22.4458 23.7356 22.3324 23.7573C22.1812 23.7867 22.1812 23.7867 22.0269 23.8167C21.7274 23.8603 21.4439 23.8671 21.1416 23.8596C21.1611 22.9368 21.2985 22.1659 21.8503 21.4035C22.2095 21.0682 22.5903 20.8032 23.0314 20.5848C22.9535 20.1602 22.8755 19.7357 22.7952 19.2982ZM23.3857 21.4035C22.7409 21.8086 22.7409 21.8086 22.2046 22.3392C22.2046 22.4936 22.2046 22.648 22.2046 22.807C22.8446 22.8334 23.3591 22.7446 23.9763 22.5731C23.9232 22.3998 23.8689 22.2268 23.8139 22.0541C23.7837 21.9578 23.7536 21.8614 23.7225 21.7622C23.6445 21.4997 23.6445 21.4997 23.3857 21.4035Z" fill="#03172C"/>
<path d="M21.2598 34.7368C21.2598 36.2421 21.2598 37.7474 21.2598 39.2982C18.6786 39.1385 18.6786 39.1385 17.9084 38.3406C17.0804 37.252 17.2058 36.0356 17.244 34.7368C17.4779 34.7368 17.7117 34.7368 17.9527 34.7368C18.3017 35.2837 18.2352 35.8964 18.2549 36.5232C18.3281 37.1355 18.4978 37.522 18.9714 37.924C19.45 38.1698 19.9046 38.2742 20.433 38.3626C20.4037 38.1599 20.4037 38.1599 20.3739 37.9532C20.314 37.4197 20.3016 36.8886 20.3001 36.3523C20.2996 36.2732 20.299 36.194 20.2985 36.1125C20.2999 35.6428 20.3222 35.1944 20.433 34.7368C20.6692 34.6199 20.6692 34.6199 21.2598 34.7368Z" fill="#03172C"/>
<path d="M20.7873 27.1345C20.7924 27.3294 20.7921 27.5244 20.7873 27.7193C20.7483 27.7579 20.7094 27.7965 20.6692 27.8363C20.2015 27.8363 19.7338 27.8363 19.2519 27.8363C19.2519 29.0328 19.2519 30.2292 19.2519 31.462C18.9596 31.5199 18.9596 31.5199 18.6613 31.5789C18.2567 31.1782 18.3112 30.6412 18.2913 30.0955C18.2929 29.3321 18.3008 28.5904 18.4251 27.8363C18.3341 27.8376 18.243 27.839 18.1492 27.8404C17.9715 27.842 17.9715 27.842 17.7903 27.8436C17.6724 27.8449 17.5546 27.8463 17.4332 27.8477C17.1259 27.8363 17.1259 27.8363 16.8897 27.7193C16.8897 27.4877 16.8897 27.2561 16.8897 27.0175C18.2022 26.8498 19.5025 26.7835 20.7873 27.1345Z" fill="#03172C"/>
<path d="M29.6456 27.0175C29.9574 27.0175 30.2692 27.0175 30.5905 27.0175C30.5905 28.5228 30.5905 30.0281 30.5905 31.5789C30.3176 31.5789 30.0448 31.5789 29.7637 31.5789C29.6456 31.462 29.6456 31.462 29.6322 31.0407C29.6322 30.8533 29.6329 30.6658 29.634 30.4783C29.6342 30.3799 29.6344 30.2814 29.6346 30.1799C29.6352 29.8641 29.6367 29.5483 29.6382 29.2325C29.6388 29.0189 29.6393 28.8053 29.6398 28.5917C29.6411 28.067 29.6432 27.5423 29.6456 27.0175Z" fill="#03172C"/>
<path d="M35.0787 34.6199C35.3157 34.6534 35.5521 34.6922 35.7873 34.7368C35.9328 35.1691 35.9201 35.5676 35.917 36.0175C35.9168 36.1078 35.9166 36.1982 35.9164 36.2913C35.9158 36.5797 35.9143 36.868 35.9128 37.1564C35.9122 37.3521 35.9117 37.5477 35.9112 37.7433C35.9099 38.2226 35.9078 38.702 35.9054 39.1813C35.5936 39.1813 35.2818 39.1813 34.9605 39.1813C34.9576 38.5505 34.9555 37.9197 34.9541 37.2888C34.9535 37.0741 34.9526 36.8593 34.9516 36.6445C34.9502 36.3365 34.9495 36.0285 34.949 35.7205C34.9484 35.6239 34.9478 35.5273 34.9472 35.4277C34.9471 35.1974 34.9532 34.9671 34.9605 34.7368C34.9995 34.6982 35.0385 34.6596 35.0787 34.6199Z" fill="#03172C"/>
</g>
<defs>
<clipPath id="clip0_2207_7778">
<rect width="60" height="60" fill="white"/>
</clipPath>
</defs>
</svg>
