<svg width="116" height="116" viewBox="0 0 116 116" fill="none" xmlns="http://www.w3.org/2000/svg">
<g clip-path="url(#clip0_4004_56)">
<path d="M98.3865 12.5208C100.185 14.086 101.723 15.782 103.213 17.6374C103.391 17.8534 103.57 18.0694 103.755 18.2919C109.208 25.0336 112.337 33.1374 113.716 41.6062C113.742 41.7614 113.768 41.9166 113.794 42.0765C113.952 43.2156 113.961 44.3526 113.969 45.5006C114.003 50.5519 114.469 55.3851 115.317 60.3646C116.452 67.0786 115.852 73.9846 113.945 80.499C113.897 80.6651 113.849 80.8312 113.8 81.0024C111.759 87.9362 108.024 94.373 103.036 99.6336C102.588 100.108 102.164 100.593 101.743 101.09C95.4394 108.234 85.6156 112.925 76.3657 114.759C76.0124 114.829 75.6596 114.903 75.3079 114.981C69.2584 116.305 62.1758 115.978 56.1731 114.643C55.9317 114.59 55.6902 114.537 55.4414 114.482C52.6342 113.839 49.9207 113.001 47.2391 111.958C47.0204 111.874 46.8016 111.789 46.5763 111.702C45.4129 111.229 44.3243 110.693 43.2426 110.062C41.3399 108.953 39.4517 108.199 37.3459 107.554C36.4422 107.277 35.5432 106.985 34.6435 106.695C34.3811 106.611 34.3811 106.611 34.1135 106.526C29.5876 105.071 25.3443 103.147 21.4645 100.398C21.1355 100.165 21.1355 100.165 20.8 99.9277C9.55709 91.7721 2.76646 80.4244 0.630535 66.786C0.571681 66.3825 0.513631 65.9788 0.4566 65.575C0.43272 65.4176 0.408841 65.2601 0.384238 65.0979C-0.91106 55.4824 1.28139 45.3242 5.93691 36.8577C6.14708 36.4664 6.14708 36.4664 6.3615 36.0672C8.07211 32.9838 10.1163 30.1418 12.559 27.5867C12.8267 27.2817 13.0932 26.9755 13.3582 26.6681C14.99 24.8224 16.7697 23.2125 18.7243 21.7076C18.8485 21.6114 18.9726 21.5152 19.1005 21.4161C29.3712 13.5153 42.5281 10.0835 55.4167 11.5604C67.4286 13.0862 79.2715 18.8338 86.9295 28.2969C87.2623 28.7051 87.6012 29.1087 87.9481 29.5052C91.0206 33.0485 93.1903 37.3078 95.4487 41.3801C95.5241 41.3801 95.5994 41.3801 95.6771 41.3801C94.08 35.254 91.3512 29.4443 87.4566 24.421C87.2327 24.1277 87.2327 24.1277 87.0044 23.8284C79.9309 14.8019 69.6417 9.14829 58.2283 7.6881C50.136 6.75547 41.6124 8.18056 34.4228 11.9985C34.0617 12.1903 33.698 12.3773 33.334 12.5638C31.7396 13.395 30.2546 14.3664 28.7716 15.3762C28.7716 14.6978 28.7716 14.6978 29.0329 14.3569C30.0595 13.3713 31.1415 12.4738 32.2565 11.5878C32.8041 11.1431 33.321 10.6824 33.838 10.2037C49.8243 -3.94273 75.9283 -3.55077 98.3865 12.5208ZM78.3227 5.42689C79.1202 6.07993 80.0079 6.49913 80.9345 6.93907C87.37 10.0697 93.0434 14.8502 97.2755 20.577C97.4509 20.8137 97.6264 21.0504 97.8071 21.2942C105.517 32.0252 108.522 45.3852 106.425 58.3763C104.514 69.1178 99.2537 78.7843 91.0477 86.0452C90.4388 86.592 89.8597 87.1548 89.2834 87.7349C90.3264 87.4034 91.0569 86.8144 91.8665 86.1096C92.0646 85.9399 92.0646 85.9399 92.2667 85.7667C92.5281 85.5425 92.7889 85.3177 93.0492 85.0922C93.321 84.8579 93.5962 84.6276 93.8726 84.3987C96.4853 82.2209 98.8436 79.7582 100.87 77.0391C101.15 76.6651 101.436 76.2965 101.723 75.928C105.51 70.9808 108.077 65.0741 109.378 59.0175C109.445 58.7202 109.445 58.7202 109.513 58.4169C110.768 52.632 110.902 46.0467 109.606 40.2495C109.56 40.0406 109.513 39.8317 109.465 39.6165C108.464 35.276 106.923 31.2833 104.811 27.3606C104.74 27.2267 104.669 27.0927 104.596 26.9547C101.712 21.5352 97.3216 16.6571 92.4802 12.8889C92.1345 12.6126 92.1345 12.6126 91.7818 12.3306C89.9811 10.9064 88.0916 9.71397 86.0865 8.59258C85.9458 8.51268 85.8051 8.43278 85.66 8.35045C82.1751 6.29675 82.1751 6.29675 78.3227 5.42689ZM67.3621 5.87913C67.9621 6.2752 68.3895 6.47082 69.0604 6.69176C77.7741 9.64155 85.4787 15.1825 90.8818 22.6121C90.9752 22.7385 91.0685 22.8649 91.1647 22.9952C98.7074 33.3108 101.623 46.6872 99.7962 59.2145C98.9606 64.3465 97.5048 69.3727 95.0025 73.9561C94.7601 74.4003 94.5238 74.8474 94.2874 75.2947C93.0608 77.5731 91.5998 79.6188 89.9684 81.6296C89.8544 81.7702 89.7404 81.9108 89.6229 82.0557C86.7737 85.5316 83.4575 88.2177 79.6928 90.6745C79.8435 90.7491 79.9942 90.8237 80.1495 90.9006C80.5728 90.7157 80.5728 90.7157 81.0308 90.4165C81.2976 90.2511 81.2976 90.2511 81.5699 90.0822C81.7605 89.9605 81.9511 89.8388 82.1476 89.7134C82.3432 89.5894 82.5388 89.4654 82.7404 89.3376C88.9488 85.3469 94.0447 80.0729 97.7322 73.7154C97.8548 73.505 97.8548 73.505 97.9799 73.2903C103.957 62.9258 105.373 50.3894 102.299 38.8928C100.778 33.4268 98.3485 28.3409 95.0206 23.7285C94.9247 23.5956 94.8288 23.4626 94.73 23.3257C93.9711 22.2908 93.1479 21.3347 92.2662 20.3995C91.8494 19.9563 91.4581 19.5019 91.0673 19.0365C88.1188 15.7073 84.4772 13.0381 80.6062 10.8538C80.4534 10.7667 80.3006 10.6796 80.1432 10.5899C76.5186 8.54702 71.6225 5.87913 67.3621 5.87913ZM18.496 26.9084C18.2776 27.1127 18.0592 27.317 17.8341 27.5276C9.43491 35.5302 4.34257 47.3273 4.06376 58.8418C4.01438 63.191 4.33691 67.4222 5.25188 71.6803C5.32723 71.6803 5.40258 71.6803 5.48022 71.6803C5.46639 71.4879 5.45255 71.2955 5.4383 71.0973C5.38506 70.335 5.33567 69.5724 5.28711 68.8097C5.25223 68.2938 5.21127 67.7785 5.16981 67.263C4.27466 55.0967 8.62174 43.0493 16.5897 33.8225C16.836 33.5372 17.0784 33.2486 17.3195 32.9589C17.6989 32.511 18.0919 32.0832 18.496 31.6569C18.6069 31.5397 18.7179 31.4224 18.8322 31.3016C27.92 21.7857 40.6234 16.6022 53.7745 16.2161C59.3067 16.147 65.1218 17.0192 70.2633 19.0688C70.8165 19.2821 70.8165 19.2821 71.4724 18.9941C67.0357 16.926 62.5905 15.5967 57.7716 14.6978C57.609 14.6675 57.4465 14.6371 57.279 14.6059C43.6707 12.1998 28.3805 17.6202 18.496 26.9084ZM33.5294 24.416C33.0838 24.6617 32.6337 24.8975 32.1825 25.133C30.1201 26.2253 28.2983 27.4819 26.4881 28.9435C26.2829 29.1006 26.0778 29.2577 25.8664 29.4196C22.8611 31.7557 20.3009 34.4987 18.0393 37.5361C17.942 37.6639 17.8446 37.7918 17.7444 37.9235C12.4362 44.8982 8.91154 54.0054 8.85904 62.7953C8.85744 62.976 8.85583 63.1567 8.85418 63.3429C8.85021 63.9221 8.84874 64.5012 8.84833 65.0804C8.84818 65.2783 8.84802 65.4763 8.84787 65.6802C8.85143 68.5622 8.93596 71.348 9.59046 74.1676C9.63572 74.3696 9.68097 74.5716 9.7276 74.7796C9.95827 75.795 10.1994 76.8078 10.4619 77.8156C10.503 77.9739 10.5441 78.1322 10.5864 78.2953C10.7191 78.7406 10.7191 78.7406 11.1889 79.1423C11.1612 78.9884 11.1335 78.8345 11.105 78.6759C10.5354 75.4126 10.1874 72.2466 10.2041 68.9386C10.2048 68.681 10.2048 68.681 10.2054 68.4181C10.2233 64.0043 10.7982 59.8525 12.1023 55.6257C12.1489 55.4714 12.1956 55.317 12.2436 55.1579C14.5309 47.7465 18.8302 41.2754 24.2046 35.7271C24.3833 35.5408 24.562 35.3546 24.7461 35.1627C33.385 26.3639 45.8878 21.4459 58.1664 21.1909C65.4064 21.126 73.4348 22.5236 79.6598 26.4111C79.9022 26.5453 79.9022 26.5453 80.1495 26.6823C80.3002 26.6076 80.4509 26.533 80.6062 26.4561C67.1185 17.1629 47.8743 16.4682 33.5294 24.416ZM37.9054 29.3957C37.5103 29.6038 37.5103 29.6038 37.1071 29.8161C31.2052 33.0269 27.8818 36.3687 25.9333 42.8278C22.6444 54.1838 24.2553 65.6467 29.9445 75.9784C32.6351 80.7145 36.2977 85.094 40.6456 88.4133C40.8843 88.6063 41.1224 88.8001 41.3601 88.9945C46.5212 93.1795 52.6887 96.9894 59.5983 96.3275C61.1425 96.1239 62.6541 95.793 64.1653 95.423C64.3309 95.3831 64.4966 95.3431 64.6672 95.302C75.3025 92.6654 84.9405 85.5761 90.6106 76.3017C95.8531 67.4329 99.1276 55.9407 96.8188 45.6764C95.1685 40.378 90.4411 35.8488 86.0865 32.5614C85.8534 32.3833 85.6203 32.2052 85.3801 32.0217C79.1506 27.3749 71.4807 24.5583 63.7086 23.9688C63.5298 23.9528 63.3511 23.9367 63.1669 23.9202C54.4881 23.1674 45.5295 25.2847 37.9054 29.3957ZM80.6062 26.6823C80.6816 26.8315 80.7569 26.9807 80.8346 27.1345C80.9853 27.0599 81.136 26.9853 81.2913 26.9084C81.0652 26.8338 80.8391 26.7591 80.6062 26.6823ZM25.8031 38.6667C20.2743 44.2971 16.4693 51.6394 14.6141 59.2437C14.5664 59.439 14.5187 59.6343 14.4696 59.8355C13.1698 65.4563 13.1391 71.9204 14.3857 77.5595C14.4311 77.7663 14.4765 77.9731 14.5232 78.1861C16.8926 88.6257 22.9913 98.1167 32.1393 103.97C33.601 104.885 35.0991 105.732 36.621 106.545C36.7881 106.636 36.9552 106.726 37.1274 106.819C37.5315 107.03 37.9461 107.221 38.3621 107.407C38.5128 107.333 38.6635 107.258 38.8188 107.181C38.7156 107.105 38.6123 107.029 38.5059 106.951C36.4252 105.413 34.3993 103.864 32.5307 102.073C32.1812 101.74 31.8273 101.411 31.4734 101.081C22.5346 92.637 17.7857 80.0315 17.3248 67.9705C17.1879 59.7981 19.0216 51.26 23.0629 44.0936C23.2236 43.7897 23.3832 43.4852 23.5419 43.1802C24.2846 41.7592 25.0339 40.3845 26.0314 39.1189C25.9184 38.895 25.9184 38.895 25.8031 38.6667ZM22.3779 51.3294C20.2346 62.5803 22.6755 74.8368 29.1449 84.348C30.6998 86.579 32.3508 88.7206 34.2519 90.6745C34.3777 90.8061 34.5036 90.9377 34.6332 91.0734C42.8987 99.6892 54.498 105.077 66.5549 105.422C75.0414 105.576 83.1895 103.777 90.6535 99.7193C90.7939 99.6434 90.9343 99.5674 91.079 99.4892C94.1555 97.8023 96.9091 95.6668 99.559 93.3879C98.6369 93.3879 98.3158 93.7399 97.5752 94.2783C92.0272 98.2007 85.5154 100.755 78.7794 101.754C78.3811 101.814 78.3811 101.814 77.9748 101.875C75.6563 102.195 73.3831 102.28 71.0442 102.263C70.7734 102.262 70.7734 102.262 70.4971 102.261C67.9093 102.248 65.3465 102.226 62.7952 101.754C62.6129 101.722 62.4307 101.689 62.2429 101.655C54.2517 100.157 46.799 97.0384 40.4172 92.0312C40.2291 91.8884 40.0411 91.7455 39.8473 91.5984C37.5659 89.8417 35.4051 87.9114 33.5668 85.6998C33.3944 85.5036 33.2219 85.3075 33.0441 85.1054C26.4962 77.5674 22.2988 67.5167 22.3493 57.5195C22.3498 57.3054 22.3502 57.0912 22.3507 56.8706C22.362 55.0171 22.4565 53.1769 22.6062 51.3294C22.5309 51.3294 22.4555 51.3294 22.3779 51.3294ZM113.716 54.7212C113.37 56.067 113.032 57.4133 112.729 58.7693C111.714 63.263 110.216 67.402 108.008 71.4542C107.798 71.8459 107.798 71.8459 107.583 72.2456C104.318 78.1247 99.7585 83.3053 94.307 87.2826C94.0783 87.4514 93.8496 87.6202 93.6139 87.7941C86.9196 92.5585 79.3807 95.3842 71.244 96.5536C70.9775 96.5928 70.7109 96.632 70.4363 96.6725C69.1749 96.8256 67.9108 96.8321 66.6414 96.8513C66.3804 96.856 66.1195 96.8607 65.8506 96.8655C65.0224 96.8802 64.1942 96.8936 63.3661 96.9069C62.8023 96.9167 62.2386 96.9266 61.6749 96.9365C60.2977 96.9606 58.9205 96.9837 57.5432 97.0058C58.1708 97.4202 58.4579 97.5437 59.1657 97.6842C59.3531 97.7215 59.5404 97.7588 59.7335 97.7973C59.9291 97.8346 60.1247 97.8719 60.3262 97.9103C60.5103 97.9476 60.6944 97.9849 60.8841 98.0234C64.002 98.6319 67.0722 98.9018 70.245 98.8855C70.4131 98.8851 70.5812 98.8847 70.7544 98.8842C73.6236 98.8725 76.4169 98.699 79.2361 98.1365C79.4246 98.0988 79.6131 98.0612 79.8072 98.0225C91.4738 95.5922 101.061 88.8762 107.642 79.1219C110.441 74.863 112.205 70.0769 113.26 65.1228C113.3 64.9342 113.34 64.7456 113.382 64.5512C114.046 61.2882 114.022 58.0381 113.945 54.7212C113.869 54.7212 113.794 54.7212 113.716 54.7212ZM19.4094 61.0526C19.2003 74.5498 22.9115 87.4017 32.5153 97.3061C32.7623 97.5609 33.0081 97.8168 33.2528 98.0739C41.413 106.627 52.9034 111.339 64.7156 111.753C75.4833 111.996 85.9931 108.709 94.5353 102.207C93.7843 102.207 93.5382 102.333 92.895 102.687C92.7044 102.79 92.5138 102.893 92.3175 102.999C92.1122 103.111 91.9068 103.222 91.6953 103.337C87.788 105.403 83.7884 106.897 79.4645 107.86C79.2501 107.908 79.0357 107.955 78.8148 108.005C71.8152 109.485 64.2638 109.214 57.3149 107.634C57.0976 107.585 56.8804 107.537 56.6566 107.487C44.2702 104.624 33.3664 96.4028 26.6558 85.8173C21.9749 78.2561 19.8393 69.8955 19.6377 61.0526C19.5623 61.0526 19.487 61.0526 19.4094 61.0526ZM11.1889 79.3684C11.4172 79.8207 11.4172 79.8207 11.4172 79.8207L11.1889 79.3684ZM88.8267 87.7349C88.6006 88.0707 88.6006 88.0707 88.37 88.4133C88.6714 88.264 88.9728 88.1148 89.2834 87.961C89.1327 87.8864 88.982 87.8118 88.8267 87.7349ZM87.9133 88.4133C87.8379 88.5625 87.7626 88.7117 87.685 88.8655C87.911 88.7909 88.1371 88.7163 88.37 88.6394C88.2193 88.5648 88.0686 88.4901 87.9133 88.4133ZM86.0865 89.5439C86.0112 89.6931 85.9358 89.8423 85.8582 89.9961C86.0842 89.9215 86.3103 89.8469 86.5432 89.77C86.3925 89.6954 86.2418 89.6207 86.0865 89.5439ZM94.7637 101.528C94.6883 101.678 94.613 101.827 94.5353 101.981C94.7614 101.906 94.9875 101.831 95.2204 101.754C95.0697 101.68 94.919 101.605 94.7637 101.528Z" fill="white"/>
<path d="M41.1023 52.2339C43.4383 52.2339 45.7742 52.2339 48.181 52.2339C47.5015 55.5985 47.5015 55.5985 46.1259 56.7563C46.434 57.6239 46.8286 58.2604 47.4103 58.9751C47.6267 59.2432 47.6267 59.2432 47.8474 59.5166C47.9575 59.6504 48.0676 59.7842 48.181 59.922C48.2199 59.7745 48.2587 59.627 48.2988 59.4751C48.8434 57.5301 49.6585 56.0936 51.3779 54.9474C51.8845 54.7963 51.8845 54.7963 52.2912 54.7212C52.2418 54.5985 52.1923 54.4758 52.1414 54.3494C52.0778 54.1876 52.0142 54.0258 51.9487 53.8592C51.8851 53.6991 51.8216 53.5391 51.7561 53.3742C51.6062 52.9123 51.6062 52.9123 51.6062 52.2339C52.209 52.2339 52.8119 52.2339 53.433 52.2339C53.8163 53.1985 54.1981 54.1637 54.5786 55.1294C54.708 55.4572 54.8378 55.7848 54.968 56.1123C55.1561 56.5857 55.3427 57.0596 55.5291 57.5336C55.6155 57.7496 55.6155 57.7496 55.7036 57.97C56.1009 58.986 56.3802 59.994 56.6298 61.0526C55.8592 61.0809 55.8592 61.0809 55.0314 61.0526C54.8807 60.9034 54.73 60.7542 54.5747 60.6004C54.5747 60.3765 54.5747 60.1527 54.5747 59.922C54.3039 59.9847 54.0331 60.0474 53.7541 60.1119C52.7811 60.3315 51.8051 60.5288 50.8249 60.7141C50.4522 60.7853 50.08 60.8598 49.7089 60.9389C48.6311 61.16 47.6747 61.2902 46.5826 61.0526C45.7893 60.4393 45.2911 59.6319 44.7817 58.7861C44.3688 58.072 44.3688 58.072 43.6952 57.9064C43.3639 57.8944 43.0323 57.8869 42.7007 57.8869C42.706 58.0586 42.7113 58.2303 42.7167 58.4072C42.7229 58.7443 42.7229 58.7443 42.7292 59.0882C42.7345 59.3112 42.7398 59.5342 42.7453 59.7639C42.7007 60.3743 42.7007 60.3743 42.244 61.0526C41.9426 61.0526 41.6412 61.0526 41.3306 61.0526C40.7314 59.4837 40.8148 57.9206 40.8311 56.2617C40.8313 55.9744 40.8314 55.6872 40.8316 55.3912C40.8418 53.2658 40.8418 53.2658 41.1023 52.2339ZM42.7007 53.8168C42.7007 54.6376 42.7007 55.4584 42.7007 56.3041C44.0783 55.9172 44.9747 55.6375 45.8975 54.4951C45.9729 54.2713 46.0483 54.0474 46.1259 53.8168C44.9956 53.8168 43.8653 53.8168 42.7007 53.8168ZM51.1495 57.2086C50.5896 57.7549 50.5896 57.7549 50.2361 58.3392C50.3115 58.563 50.3868 58.7869 50.4645 59.0175C52.0725 58.855 52.0725 58.855 53.6613 58.5653C53.5285 57.3649 53.5285 57.3649 52.9763 56.3041C52.2083 56.3041 51.752 56.767 51.1495 57.2086Z" fill="white"/>
<path d="M63.7086 67.1579C64.0279 67.7244 64.2512 68.2178 64.4694 68.822C64.5658 69.0735 64.5658 69.0735 64.6642 69.33C64.7993 69.6851 64.9322 70.0409 65.063 70.3976C65.2629 70.9419 65.4696 71.4834 65.6776 72.0248C65.8081 72.3703 65.9382 72.7159 66.0679 73.0618C66.1292 73.2234 66.1906 73.385 66.2538 73.5515C66.5575 74.3857 66.7517 75.0875 66.6771 75.9766C65.9064 75.9059 65.9064 75.9059 65.0787 75.7505C64.9279 75.5266 64.7772 75.3028 64.622 75.0721C64.491 75.0915 64.3601 75.1108 64.2253 75.1308C63.174 75.2854 62.1223 75.4347 61.0692 75.5765C60.3598 75.6722 59.6656 75.7816 58.9624 75.9174C58.2818 76.0313 57.7652 76.1031 57.0865 75.9766C56.3167 75.4027 55.7969 74.7276 55.2598 73.9415C54.6268 73.0067 54.6268 73.0067 53.6042 72.6272C53.2934 72.6062 53.2934 72.6062 52.9763 72.5848C52.9816 72.7728 52.9869 72.9608 52.9923 73.1545C52.9985 73.5231 52.9985 73.5231 53.0048 73.8991C53.0101 74.1431 53.0154 74.3871 53.0209 74.6384C52.9763 75.2982 52.9763 75.2982 52.5196 75.9766C52.2182 75.9766 51.9168 75.9766 51.6062 75.9766C51.0093 74.1895 51.0988 72.4149 51.121 70.5497C51.1351 68.8708 51.1351 68.8708 51.1495 67.1579C53.4855 67.1579 55.8215 67.1579 58.2283 67.1579C57.9701 69.2031 57.9701 69.2031 57.586 69.9137C57.5139 70.0522 57.4418 70.1906 57.3675 70.3333C57.0115 70.894 56.598 71.3957 56.1731 71.9064C56.51 72.3593 56.8479 72.8114 57.1864 73.2631C57.2825 73.3926 57.3786 73.522 57.4777 73.6553C57.7223 73.981 57.9747 74.3009 58.2283 74.6199C58.3036 74.6199 58.379 74.6199 58.4566 74.6199C58.4875 74.4613 58.5184 74.3027 58.5503 74.1394C58.9912 72.215 59.7545 71.0176 61.3823 69.8713C61.8818 69.6452 61.8818 69.6452 62.3385 69.6452C62.1124 68.8244 61.8864 68.0036 61.6535 67.1579C62.937 66.8401 62.937 66.8401 63.7086 67.1579ZM52.9763 68.5146C52.9763 69.3354 52.9763 70.1562 52.9763 71.0019C54.1199 70.8941 54.8273 70.5953 55.7164 69.8713C55.9425 69.4236 56.1686 68.9759 56.4015 68.5146C55.2712 68.5146 54.1409 68.5146 52.9763 68.5146ZM62.7952 71.0019C62.4119 71.3191 62.0319 71.6402 61.6535 71.963C61.4415 72.1413 61.2296 72.3197 61.0112 72.5035C60.4082 73.0263 60.4082 73.0263 60.5117 73.9415C61.708 73.8168 62.7891 73.6183 63.9369 73.2631C63.8344 72.928 63.7292 72.5937 63.6229 72.2597C63.5647 72.0735 63.5064 71.8872 63.4463 71.6953C63.2955 71.1878 63.2955 71.1878 62.7952 71.0019Z" fill="white"/>
<path d="M33.7952 37.3099C35.9805 37.3099 38.1657 37.3099 40.4172 37.3099C40.1885 39.3487 39.9601 40.0239 38.5905 41.3801C38.5905 41.5294 38.5905 41.6786 38.5905 41.8324C38.76 41.9909 38.9296 42.1495 39.1042 42.3129C40.2798 43.5299 40.6456 44.4341 40.6456 46.1287C38.3096 46.1287 35.9736 46.1287 33.5668 46.1287C33.3223 44.6755 33.2965 43.3144 33.2957 41.8465C33.2929 41.5855 33.2901 41.3244 33.2872 41.0555C33.2868 40.8015 33.2863 40.5474 33.2859 40.2857C33.2849 40.0563 33.284 39.827 33.283 39.5906C33.3385 38.8928 33.3385 38.8928 33.7952 37.3099ZM35.1653 38.8928C35.1653 39.5644 35.1653 40.2359 35.1653 40.9279C36.399 40.8301 37.1763 40.5874 38.1338 39.7973C38.2091 39.4988 38.2845 39.2003 38.3621 38.8928C37.3072 38.8928 36.2522 38.8928 35.1653 38.8928ZM35.1653 42.5107C35.1653 43.1823 35.1653 43.8539 35.1653 44.5458C36.2956 44.5458 37.4259 44.5458 38.5905 44.5458C38.1408 43.4327 37.9917 43.2025 36.9662 42.6724C36.3535 42.4425 35.8111 42.4483 35.1653 42.5107Z" fill="white"/>
<path d="M71.4724 66.9318C73.1995 67.0765 74.3828 68.6004 75.4515 69.8307C75.8848 70.3658 76.3097 70.9048 76.7243 71.4542C76.7355 71.2225 76.7467 70.9907 76.7582 70.752C76.7754 70.4443 76.7926 70.1366 76.81 69.8289C76.817 69.6766 76.8241 69.5243 76.8314 69.3674C76.8844 68.4701 77.0175 67.7442 77.4094 66.9318C77.966 67.0166 77.966 67.0166 78.5511 67.1579C78.9787 68.0048 78.881 69.0224 78.9222 69.9561C78.9371 70.2938 78.9371 70.2938 78.9523 70.6383C79.1124 74.8036 79.1124 74.8036 78.3227 75.9766C77.7947 75.9766 77.7947 75.9766 77.181 75.7505C77.0132 75.32 76.8486 74.8879 76.7065 74.4485C75.9942 72.7329 74.1523 71.3723 72.8424 70.0975C72.8367 70.2675 72.831 70.4376 72.8251 70.6128C72.7987 71.3785 72.7706 72.1442 72.7425 72.9098C72.7336 73.1776 72.7246 73.4453 72.7153 73.7211C72.7058 73.9755 72.6962 74.2298 72.6863 74.4918C72.678 74.7274 72.6696 74.9631 72.661 75.2059C72.6141 75.7505 72.6141 75.7505 72.3857 75.9766C71.9291 75.9858 71.4723 75.9862 71.0157 75.9766C70.8613 74.1254 70.76 72.2801 70.7445 70.4225C70.7416 70.2532 70.7386 70.0839 70.7356 69.9094C70.7338 68.9055 70.8496 68.1001 71.244 67.1579C71.3194 67.0833 71.3947 67.0087 71.4724 66.9318Z" fill="white"/>
<path d="M60.7401 52.2339C62.4016 52.1093 62.4016 52.1093 63.1386 52.665C63.2937 52.8585 63.4488 53.052 63.6087 53.2515C63.7788 53.4567 63.9489 53.6619 64.1242 53.8733C64.2885 54.0785 64.4527 54.2837 64.622 54.4951C64.9197 54.836 65.2192 55.1753 65.5211 55.5127C65.6456 55.6549 65.7701 55.7972 65.8984 55.9437C66.1483 56.2234 66.4104 56.4923 66.6771 56.7563C66.7524 55.2639 66.8278 53.7715 66.9054 52.2339C67.4329 52.2339 67.9604 52.2339 68.5039 52.2339C68.7042 53.0877 68.7616 53.8791 68.7625 54.7548C68.7628 55.0195 68.7631 55.2841 68.7634 55.5568C68.7625 55.8314 68.7617 56.106 68.7607 56.3889C68.7621 56.7981 68.7621 56.7981 68.7634 57.2156C68.762 58.5172 68.7443 59.7714 68.5039 61.0526C67.9764 61.0526 67.4489 61.0526 66.9054 61.0526C66.8895 60.8168 66.8736 60.581 66.8573 60.338C66.6472 59.3258 66.3451 58.9692 65.621 58.2402C65.4296 58.0447 65.2383 57.8491 65.0412 57.6476C64.9404 57.5459 64.8397 57.4442 64.7359 57.3394C64.0646 56.6393 63.4323 55.9041 62.7952 55.1735C62.7895 55.3206 62.7837 55.4678 62.7779 55.6194C62.7514 56.2858 62.7233 56.9521 62.6953 57.6184C62.6863 57.85 62.6773 58.0816 62.6681 58.3202C62.6585 58.5424 62.6489 58.7647 62.6391 58.9937C62.6265 59.301 62.6265 59.301 62.6137 59.6145C62.5668 60.1481 62.5668 60.1481 62.3385 60.8265C61.8838 60.9127 61.4268 60.9878 60.9684 61.0526C60.4884 60.5773 60.632 59.5886 60.5974 58.9327C60.5871 58.743 60.5768 58.5533 60.5662 58.3579C60.4736 56.3079 60.5898 54.2785 60.7401 52.2339Z" fill="white"/>
<path d="M82.1547 66.9017C82.4713 66.9013 82.4713 66.9013 82.7942 66.9009C83.0141 66.9017 83.234 66.9026 83.4605 66.9035C83.7904 66.9022 83.7904 66.9022 84.1269 66.9009C84.3379 66.9011 84.549 66.9014 84.7664 66.9017C85.0558 66.9021 85.0558 66.9021 85.3511 66.9025C85.8582 66.9318 85.8582 66.9318 86.5432 67.1579C86.586 67.6949 86.586 67.6949 86.5432 68.2885C85.6774 68.8601 84.9885 68.7915 83.9886 68.769C83.8174 68.767 83.6463 68.7649 83.4699 68.7628C83.0481 68.7575 82.6264 68.7494 82.2046 68.7407C82.2046 69.3377 82.2046 69.9347 82.2046 70.5497C82.5636 70.5418 82.5636 70.5418 82.9298 70.5338C83.2447 70.5296 83.5596 70.5255 83.8744 70.5214C84.0321 70.5176 84.1897 70.5139 84.3521 70.51C85.2123 70.5017 85.5806 70.5172 86.3149 71.0019C86.2395 71.375 86.1642 71.7481 86.0865 72.1326C85.2735 72.4009 84.6164 72.3806 83.7602 72.3728C83.4697 72.3708 83.1792 72.3687 82.8799 72.3666C82.5456 72.3627 82.5456 72.3627 82.2046 72.3587C82.2046 72.9556 82.2046 73.5526 82.2046 74.1676C83.6364 74.1676 85.0681 74.1676 86.5432 74.1676C86.5432 74.69 86.5432 75.2123 86.5432 75.7505C85.9354 76.0514 85.4729 76.0021 84.7932 75.9987C84.5625 75.9981 84.3318 75.9976 84.0942 75.997C83.8003 75.9949 83.5064 75.9929 83.2037 75.9907C81.8049 75.9837 81.8049 75.9837 80.3779 75.9766C80.3779 73.0664 80.3779 70.1563 80.3779 67.1579C81.0399 66.9393 81.4661 66.9026 82.1547 66.9017Z" fill="white"/>
<path d="M49.5511 37.3099C51.9624 37.3099 54.3738 37.3099 56.8582 37.3099C56.8582 39.1189 56.8582 39.1189 56.5148 39.6277C56.3596 39.7583 56.2045 39.8888 56.0447 40.0234C55.3902 40.6075 54.779 41.185 54.2037 41.8465C54.0756 41.9937 53.9476 42.1409 53.8156 42.2925C53.6894 42.4392 53.5631 42.5858 53.433 42.7368C53.2996 42.8904 53.1663 43.0441 53.0289 43.2023C52.7063 43.5742 52.3845 43.9469 52.0629 44.3197C52.3525 44.3158 52.3525 44.3158 52.648 44.3117C54.0759 44.3005 55.447 44.3266 56.8582 44.5458C56.8582 45.0681 56.8582 45.5905 56.8582 46.1287C51.5467 46.7298 51.5467 46.7298 49.5511 45.9025C49.3227 45.4503 49.3227 45.4503 49.5368 44.7719C50.5356 42.6156 52.51 40.844 54.118 39.1189C52.6109 39.0443 51.1038 38.9697 49.5511 38.8928C49.5511 38.3704 49.5511 37.8481 49.5511 37.3099Z" fill="white"/>
<path d="M70.3306 52.2339C72.3652 52.2339 74.3998 52.2339 76.496 52.2339C76.4206 52.7563 76.3453 53.2786 76.2676 53.8168C74.8359 53.8168 73.4042 53.8168 71.929 53.8168C71.929 54.4883 71.929 55.1599 71.929 55.8518C72.0798 55.7772 72.2305 55.7026 72.3857 55.6257C72.8323 55.598 73.2799 55.586 73.7273 55.5833C73.9669 55.5801 74.2065 55.5769 74.4533 55.5736C75.1112 55.6246 75.4827 55.7411 76.0393 56.078C75.8395 57.1803 75.8395 57.1803 75.5826 57.4347C74.9668 57.4512 74.3571 57.4556 73.7415 57.4488C73.5683 57.4478 73.3951 57.4468 73.2166 57.4457C72.7874 57.4431 72.3582 57.439 71.929 57.4347C72.0044 58.0317 72.0798 58.6286 72.1574 59.2437C72.3558 59.2384 72.5542 59.2332 72.7586 59.2278C73.0217 59.2237 73.2849 59.2196 73.556 59.2154C73.8156 59.2101 74.0753 59.2049 74.3427 59.1995C75.139 59.2444 75.7551 59.4127 76.496 59.6959C76.4532 60.1199 76.4532 60.1199 76.2676 60.6004C75.4797 60.9919 74.8408 61.1074 73.9654 61.0968C73.7528 61.0953 73.5401 61.0939 73.321 61.0924C73.1018 61.0886 72.8827 61.0848 72.6569 61.0809C72.4333 61.0789 72.2098 61.0768 71.9794 61.0747C71.4298 61.0694 70.8802 61.062 70.3306 61.0526C70.1632 60.0128 70.073 59.0147 70.0719 57.962C70.0717 57.6855 70.0714 57.4091 70.0711 57.1242C70.0719 56.8396 70.0728 56.555 70.0737 56.2617C70.0728 55.9744 70.072 55.6872 70.0711 55.3912C70.0714 55.1156 70.0716 54.84 70.0719 54.5561C70.0722 54.3056 70.0725 54.0552 70.0727 53.7972C70.1023 53.1384 70.1023 53.1384 70.3306 52.2339Z" fill="white"/>
<path d="M77.6377 52.2339C79.6723 52.2339 81.7068 52.2339 83.8031 52.2339C83.8031 52.7563 83.8031 53.2786 83.8031 53.8168C82.3713 53.8168 80.9396 53.8168 79.4645 53.8168C79.3891 54.4883 79.3138 55.1599 79.2361 55.8518C79.4622 55.7772 79.6883 55.7026 79.9212 55.6257C81.1858 55.5631 82.1478 55.6823 83.3464 56.078C83.4217 56.3764 83.4971 56.6749 83.5747 56.9825C82.7289 57.5197 81.9923 57.481 81.0058 57.463C80.7174 57.4589 80.4289 57.4548 80.1317 57.4506C79.9115 57.4453 79.6913 57.4401 79.4645 57.4347C79.4645 58.1063 79.4645 58.7779 79.4645 59.4698C80.8962 59.4698 82.3279 59.4698 83.8031 59.4698C83.8031 59.9921 83.8031 60.5145 83.8031 61.0526C81.7685 61.0526 79.7339 61.0526 77.6377 61.0526C77.6377 58.1425 77.6377 55.2323 77.6377 52.2339Z" fill="white"/>
<path d="M60.2834 37.3099C61.54 37.227 61.54 37.227 61.9942 37.559C63.3345 39.2301 64.045 41.58 64.7219 43.5848C64.781 43.7598 64.8401 43.9349 64.901 44.1153C65.1277 44.8095 65.307 45.3944 65.307 46.1287C64.6172 46.0333 64.027 45.9448 63.3946 45.6481C62.3691 45.3097 61.3765 45.6001 60.3405 45.7939C59.2398 45.9997 58.2135 46.189 57.0865 46.1287C57.205 43.8911 57.501 42.3633 59.1416 40.7018C59.6616 40.356 60.1802 40.0799 60.7401 39.7973C60.5894 38.9765 60.4387 38.1556 60.2834 37.3099ZM61.4251 41.3801C60.1785 42.1633 60.1785 42.1633 59.1416 43.1891C59.1416 43.4876 59.1416 43.786 59.1416 44.0936C59.5413 44.0615 59.9409 44.0283 60.3405 43.9946C60.563 43.9763 60.7855 43.9579 61.0148 43.939C61.554 43.8786 62.046 43.7875 62.5668 43.6413C62.4682 42.5669 62.2637 42.0766 61.4251 41.3801Z" fill="white"/>
<path d="M48.8661 66.9318C49.2428 67.081 49.6196 67.2302 50.0078 67.384C50.0289 68.674 49.8447 69.47 48.966 70.4508C48.7085 70.7139 48.4482 70.9746 48.181 71.2281C48.2746 71.3482 48.3682 71.4683 48.4647 71.592C48.5877 71.7517 48.7107 71.9114 48.8375 72.076C48.9594 72.2334 49.0812 72.3908 49.2068 72.553C50.0099 73.682 50.0536 74.391 50.0078 75.7505C49.4426 75.8624 49.4426 75.8624 48.8661 75.9766C48.2663 75.3557 48.1255 74.8507 47.9955 74.0263C47.902 73.4956 47.902 73.4956 47.7243 73.037C46.7752 72.5124 45.8527 72.5138 44.7558 72.3587C44.6805 73.478 44.6051 74.5973 44.5275 75.7505C43.9623 75.8624 43.9623 75.8624 43.3857 75.9766C42.5528 75.1518 42.6717 73.9609 42.6704 72.8462C42.6701 72.6017 42.6698 72.3571 42.6695 72.1052C42.6704 71.853 42.6712 71.6009 42.6722 71.3411C42.6713 71.089 42.6704 70.8369 42.6695 70.5771C42.6698 70.3325 42.6701 70.088 42.6704 69.836C42.6706 69.6149 42.6709 69.3938 42.6712 69.166C42.7022 68.4815 42.8022 67.831 42.929 67.1579C43.4714 67.1296 43.4714 67.1296 44.0708 67.1579C44.5275 67.6101 44.5275 67.6101 44.5721 68.3468C44.5641 68.7796 44.5641 68.7796 44.556 69.2212C44.5519 69.511 44.5478 69.8007 44.5435 70.0992C44.5382 70.3225 44.5329 70.5458 44.5275 70.7758C45.7227 70.5126 46.7348 70.2708 47.4951 69.2734C47.7274 68.8356 47.9478 68.3912 48.1534 67.9405C48.4094 67.384 48.4094 67.384 48.8661 66.9318Z" fill="white"/>
<path d="M44.0708 37.3099C44.6736 37.3099 45.2764 37.3099 45.8975 37.3099C46.7035 39.1387 47.4251 40.9983 48.1382 42.864C48.2316 43.1063 48.3251 43.3485 48.4213 43.598C48.5083 43.8271 48.5953 44.0563 48.685 44.2923C48.7638 44.4988 48.8426 44.7054 48.9239 44.9182C49.0944 45.4503 49.0944 45.4503 49.0944 46.1287C48.338 46.1852 48.338 46.1852 47.496 46.1287C47.1008 45.6729 47.1008 45.6729 46.8109 45.2242C46.6716 45.2516 46.5324 45.279 46.3889 45.3072C45.7543 45.4314 45.1195 45.5539 44.4847 45.6764C44.2655 45.7195 44.0464 45.7627 43.8206 45.8071C43.6079 45.8479 43.3952 45.8888 43.1761 45.9308C42.8837 45.9876 42.8837 45.9876 42.5855 46.0456C42.0064 46.13 41.4583 46.1432 40.8739 46.1287C40.9116 44.3444 41.1771 42.854 42.244 41.3801C42.9385 40.7319 43.6747 40.2195 44.5275 39.7973C44.3768 38.9764 44.2261 38.1556 44.0708 37.3099ZM45.2125 41.3801C43.9659 42.1633 43.9659 42.1633 42.929 43.1891C42.929 43.4876 42.929 43.786 42.929 44.0936C44.1664 44.1446 45.1611 43.973 46.3542 43.6413C46.2517 43.3062 46.1465 42.9719 46.0403 42.6379C45.982 42.4517 45.9237 42.2654 45.8637 42.0735C45.7129 41.566 45.7129 41.566 45.2125 41.3801Z" fill="white"/>
<path d="M41.1023 67.1579C41.1023 70.0681 41.1023 72.9782 41.1023 75.9766C36.112 75.6678 36.112 75.6678 34.6229 74.1252C33.0223 72.0206 33.2646 69.6688 33.3385 67.1579C33.7906 67.1579 34.2427 67.1579 34.7086 67.1579C35.3833 68.2151 35.2548 69.3997 35.2928 70.6115C35.4344 71.7952 35.7624 72.5425 36.6781 73.3197C37.6035 73.7949 38.4822 73.9968 39.5038 74.1676C39.4473 73.7759 39.4473 73.7759 39.3897 73.3762C39.2738 72.3448 39.2498 71.318 39.247 70.2812C39.2459 70.1282 39.2449 69.9751 39.2438 69.8175C39.2465 68.9095 39.2897 68.0426 39.5038 67.1579C39.9605 66.9318 39.9605 66.9318 41.1023 67.1579Z" fill="white"/>
<path d="M40.1889 52.46C40.1986 52.8368 40.1982 53.2139 40.1889 53.5906C40.1135 53.6653 40.0382 53.7399 39.9605 53.8168C39.0563 53.8168 38.152 53.8168 37.2204 53.8168C37.2204 56.13 37.2204 58.4432 37.2204 60.8265C36.6552 60.9384 36.6552 60.9384 36.0786 61.0526C35.2963 60.2779 35.4017 59.2397 35.3633 58.1846C35.3664 56.7087 35.3816 55.2748 35.622 53.8168C35.4459 53.8194 35.2699 53.822 35.0886 53.8247C34.745 53.8278 34.745 53.8278 34.3946 53.8309C34.1668 53.8335 33.9389 53.8361 33.7042 53.8388C33.1101 53.8168 33.1101 53.8168 32.6535 53.5906C32.6535 53.1429 32.6535 52.6952 32.6535 52.2339C35.1911 51.9097 37.705 51.7815 40.1889 52.46Z" fill="white"/>
<path d="M57.3149 52.2339C57.9177 52.2339 58.5205 52.2339 59.1416 52.2339C59.1416 55.1441 59.1416 58.0543 59.1416 61.0526C58.6142 61.0526 58.0867 61.0526 57.5432 61.0526C57.3149 60.8265 57.3149 60.8265 57.2889 60.0121C57.289 59.6496 57.2903 59.2872 57.2926 58.9248C57.2929 58.7344 57.2932 58.544 57.2936 58.3478C57.2948 57.7372 57.2977 57.1267 57.3006 56.5161C57.3017 56.1031 57.3028 55.6902 57.3037 55.2773C57.3062 54.2628 57.3102 53.2484 57.3149 52.2339Z" fill="white"/>
<path d="M67.8188 66.9318C68.2771 66.9966 68.7342 67.0717 69.1889 67.1579C69.4702 67.9935 69.4456 68.764 69.4395 69.6337C69.4392 69.8084 69.4389 69.9831 69.4386 70.1631C69.4373 70.7207 69.4344 71.2782 69.4315 71.8358C69.4304 72.214 69.4293 72.5922 69.4284 72.9703C69.4259 73.8971 69.4219 74.8238 69.4172 75.7505C68.8144 75.7505 68.2116 75.7505 67.5905 75.7505C67.5848 74.5309 67.5807 73.3113 67.5779 72.0918C67.5768 71.6765 67.5752 71.2613 67.5732 70.8461C67.5705 70.2506 67.5692 69.6551 67.5682 69.0596C67.567 68.8728 67.5658 68.686 67.5646 68.4936C67.5645 68.0483 67.5763 67.603 67.5905 67.1579C67.6658 67.0833 67.7412 67.0087 67.8188 66.9318Z" fill="white"/>
</g>
<defs>
<clipPath id="clip0_4004_56">
<rect width="116" height="116" fill="white"/>
</clipPath>
</defs>
</svg>
